<svg width="128" height="56" viewBox="0 0 128 56" fill="none" xmlns="http://www.w3.org/2000/svg">
<path d="M15.8393 45.6963L23.3148 50.8165C23.3425 50.8376 23.3742 50.8528 23.408 50.8612C23.4418 50.8696 23.4769 50.871 23.5112 50.8654C23.5456 50.8598 23.5784 50.8472 23.6077 50.8284C23.6371 50.8097 23.6623 50.7851 23.6818 50.7563C23.7013 50.7275 23.7147 50.695 23.7213 50.6608C23.7278 50.6267 23.7273 50.5915 23.7198 50.5575C23.7123 50.5235 23.6979 50.4914 23.6776 50.4632C23.6573 50.4349 23.6314 50.4111 23.6015 50.3932L15.8393 45.6963Z" fill="#004AAD"/>
<path d="M15.0093 43.3704L25.1063 38.8134C25.1374 38.7998 25.1655 38.78 25.1889 38.7554C25.2123 38.7308 25.2306 38.7017 25.2427 38.6699C25.2548 38.6382 25.2604 38.6043 25.2593 38.5703C25.2581 38.5364 25.2502 38.503 25.236 38.4721C25.2077 38.4098 25.1559 38.3613 25.092 38.337C25.0281 38.3127 24.9572 38.3146 24.8947 38.3424L15.0093 43.3704Z" fill="#004AAD"/>
<path d="M13.5171 41.4517L15.7358 32.4504C15.7521 32.3843 15.7415 32.3145 15.7063 32.2562C15.6711 32.198 15.6142 32.1561 15.5481 32.1398C15.482 32.1235 15.4121 32.1341 15.3539 32.1693C15.2956 32.2045 15.2538 32.2614 15.2375 32.3275L13.5171 41.4517Z" fill="#004AAD"/>
<path d="M11.5833 42.1325L5.85204 33.5374C5.81474 33.4845 5.75879 33.4477 5.69546 33.4344C5.63213 33.4211 5.56612 33.4323 5.51069 33.4657C5.45442 33.5044 5.41569 33.5638 5.40291 33.6309C5.39013 33.698 5.40433 33.7674 5.44243 33.8241L11.5833 42.1325Z" fill="#004AAD"/>
<path d="M10.1809 43.8047L1.23762 41.3709C1.20512 41.3621 1.17122 41.3599 1.13785 41.3642C1.10448 41.3686 1.0723 41.3795 1.04314 41.3963C1.01397 41.4131 0.988406 41.4355 0.967894 41.4621C0.947381 41.4888 0.932321 41.5193 0.923579 41.5518C0.914838 41.5843 0.912593 41.6182 0.916954 41.6515C0.921315 41.6849 0.932198 41.7171 0.948997 41.7463C0.965797 41.7754 0.988174 41.801 1.01485 41.8215C1.04153 41.842 1.07199 41.8571 1.10449 41.8658L10.1809 43.8047Z" fill="#004AAD"/>
<path d="M11.0604 46.3005L4.57484 51.4992C4.54862 51.5203 4.5268 51.5463 4.51064 51.5758C4.49447 51.6053 4.48427 51.6377 4.48063 51.6712C4.47698 51.7046 4.47996 51.7384 4.48939 51.7707C4.49882 51.803 4.51452 51.8331 4.53559 51.8594C4.55666 51.8856 4.58268 51.9074 4.61218 51.9236C4.64168 51.9397 4.67407 51.9499 4.70751 51.9536C4.74095 51.9572 4.77479 51.9542 4.80708 51.9448C4.83937 51.9354 4.86948 51.9197 4.89571 51.8986L11.0604 46.3005Z" fill="#004AAD"/>
<path d="M13.3272 47.0854L14.3512 54.9569C14.3554 54.9903 14.3662 55.0226 14.3829 55.0518C14.3996 55.0811 14.4219 55.1067 14.4485 55.1273C14.4752 55.1479 14.5056 55.1631 14.5381 55.1719C14.5706 55.1808 14.6045 55.1831 14.6379 55.1788C14.7057 55.1694 14.767 55.1337 14.8086 55.0794C14.8501 55.025 14.8686 54.9565 14.8598 54.8886L13.3272 47.0854Z" fill="#004AAD"/>
<path d="M14.2628 45.6953L16.0651 49.4501C16.0953 49.5106 16.1478 49.5568 16.2115 49.5791C16.2753 49.6015 16.3452 49.598 16.4065 49.5696C16.4675 49.5401 16.5144 49.4876 16.5368 49.4236C16.5592 49.3596 16.5553 49.2894 16.5259 49.2283C16.5276 49.2192 16.5276 49.21 16.5259 49.2009L14.2628 45.6953Z" fill="#004AAD"/>
<path d="M14.9715 44.2882L18.1563 44.0663C18.2236 44.0611 18.2862 44.0295 18.3303 43.9783C18.3744 43.9272 18.3965 43.8606 18.3918 43.7933C18.3901 43.7595 18.3816 43.7264 18.3669 43.6959C18.3521 43.6654 18.3314 43.6383 18.3059 43.616C18.2804 43.5937 18.2507 43.5767 18.2186 43.5661C18.1864 43.5556 18.1525 43.5515 18.1188 43.5543L18.0778 43.5543L14.9715 44.2882Z" fill="#004AAD"/>
<path d="M14.0868 43.059L16.6947 40.574C16.7319 40.5262 16.751 40.4668 16.7486 40.4063C16.7461 40.3459 16.7223 40.2882 16.6814 40.2436C16.6405 40.199 16.5851 40.1703 16.525 40.1627C16.465 40.1551 16.4042 40.169 16.3534 40.2019C16.3437 40.2093 16.3356 40.2186 16.3295 40.2292L14.0868 43.059Z" fill="#004AAD"/>
<path d="M12.9139 42.5686L12.2654 38.551C12.2609 38.517 12.2497 38.4843 12.2323 38.4547C12.215 38.4252 12.1919 38.3994 12.1644 38.379C12.1369 38.3585 12.1056 38.3438 12.0723 38.3357C12.039 38.3275 12.0044 38.3262 11.9706 38.3317C11.9368 38.3372 11.9044 38.3494 11.8754 38.3676C11.8464 38.3858 11.8213 38.4097 11.8017 38.4378C11.7821 38.4659 11.7683 38.4976 11.7612 38.5311C11.754 38.5646 11.7537 38.5992 11.7602 38.6329C11.7586 38.6442 11.7586 38.6557 11.7602 38.667L12.9139 42.5686Z" fill="#004AAD"/>
<path d="M11.8805 43.5824L8.54896 41.3363C8.49226 41.2982 8.42282 41.284 8.35572 41.2968C8.28862 41.3096 8.22926 41.3483 8.19054 41.4046C8.15713 41.46 8.14596 41.526 8.15925 41.5894C8.17255 41.6527 8.20934 41.7086 8.26222 41.746L8.28953 41.763L11.8805 43.5824Z" fill="#004AAD"/>
<path d="M11.6899 45.0564L8.11263 45.5309C8.07921 45.5351 8.04696 45.5458 8.01772 45.5625C7.98847 45.5792 7.9628 45.6016 7.94219 45.6282C7.92158 45.6548 7.90643 45.6853 7.89761 45.7178C7.88878 45.7503 7.88645 45.7842 7.89075 45.8176C7.90092 45.885 7.93686 45.9458 7.99098 45.9872C8.04511 46.0286 8.11321 46.0473 8.1809 46.0395L8.21504 46.0395L11.6899 45.0564Z" fill="#004AAD"/>
<path d="M12.7322 45.9917L11.2746 49.5861C11.2568 49.6476 11.2624 49.7136 11.2904 49.7713C11.3184 49.829 11.3667 49.8742 11.426 49.8984C11.4854 49.9226 11.5516 49.9239 11.6119 49.9022C11.6721 49.8804 11.7222 49.8371 11.7525 49.7806L11.7525 49.7465L12.7322 45.9917Z" fill="#004AAD"/>
<path d="M21.8052 44.418L24.7169 44.3087C24.734 44.3083 24.7507 44.3045 24.7663 44.2976C24.7819 44.2906 24.7959 44.2807 24.8077 44.2684C24.8194 44.256 24.8286 44.2414 24.8347 44.2255C24.8408 44.2096 24.8437 44.1927 24.8432 44.1756C24.8406 44.1421 24.8255 44.1108 24.8008 44.088C24.7761 44.0652 24.7437 44.0526 24.7101 44.0527L21.8052 44.418Z" fill="#004AAD"/>
<path d="M18.3262 37.6291L20.2104 35.4547C20.227 35.4284 20.2335 35.397 20.2289 35.3663C20.2243 35.3355 20.2088 35.3075 20.1852 35.2872C20.1616 35.2669 20.1316 35.2558 20.1005 35.2559C20.0694 35.2559 20.0394 35.2671 20.0158 35.2874L18.3262 37.6291Z" fill="#004AAD"/>
<path d="M10.9869 35.3291L10.2121 33.0967C10.2005 33.0648 10.1768 33.0386 10.1462 33.024C10.1156 33.0093 10.0804 33.0072 10.0482 33.0182C10.0321 33.0235 10.0173 33.0321 10.0046 33.0433C9.99187 33.0545 9.98154 33.0682 9.97421 33.0835C9.96689 33.0987 9.96271 33.1154 9.96194 33.1323C9.96117 33.1492 9.96381 33.1661 9.96972 33.182L10.9869 35.3291Z" fill="#004AAD"/>
<path d="M5.80933 39.0995L3.25606 37.4678C3.22754 37.4497 3.193 37.4437 3.16004 37.4511C3.14371 37.4547 3.12826 37.4615 3.11458 37.4711C3.10089 37.4808 3.08923 37.493 3.08026 37.5071C3.0713 37.5212 3.0652 37.537 3.06232 37.5534C3.05944 37.5699 3.05983 37.5868 3.06348 37.6031C3.06712 37.6194 3.07395 37.6349 3.08356 37.6486C3.09318 37.6623 3.1054 37.6739 3.11952 37.6829L5.80933 39.0995Z" fill="#004AAD"/>
<path d="M4.95947 46.187L2.02048 47.0882C2.00219 47.0911 1.98473 47.0979 1.96929 47.1082C1.95386 47.1184 1.94079 47.1319 1.93099 47.1476C1.92119 47.1633 1.91487 47.181 1.91246 47.1994C1.91005 47.2177 1.91159 47.2364 1.91701 47.2541C1.92243 47.2719 1.93159 47.2882 1.94386 47.3021C1.95612 47.316 1.97122 47.3271 1.98814 47.3347C2.00506 47.3422 2.02341 47.3461 2.04194 47.3459C2.06047 47.3458 2.07876 47.3417 2.09558 47.3339L4.95947 46.187Z" fill="#004AAD"/>
<path d="M10.0986 53.0652L8.97219 55.7516C8.95907 55.7828 8.95888 55.818 8.97168 55.8494C8.98449 55.8807 9.00922 55.9057 9.04046 55.9188C9.07169 55.932 9.10686 55.9322 9.13823 55.9193C9.1696 55.9065 9.1946 55.8818 9.20772 55.8506L10.0986 53.0652Z" fill="#004AAD"/>
<path d="M18.2014 52.438L19.7306 54.6909C19.7392 54.7071 19.7511 54.7213 19.7655 54.7326C19.78 54.7439 19.7967 54.7519 19.8145 54.7563C19.8324 54.7606 19.8509 54.7611 19.869 54.7578C19.887 54.7544 19.9041 54.7473 19.9192 54.7368C19.9343 54.7264 19.9469 54.7129 19.9564 54.6971C19.9659 54.6814 19.9719 54.6639 19.9741 54.6457C19.9762 54.6274 19.9745 54.609 19.969 54.5915C19.9635 54.574 19.9544 54.5578 19.9422 54.5441L18.2014 52.438Z" fill="#004AAD"/>
<path d="M13.7731 46.542L14.4865 49.341C14.4953 49.3739 14.5167 49.4021 14.5461 49.4193C14.5755 49.4365 14.6105 49.4415 14.6435 49.4332C14.6764 49.4244 14.7045 49.403 14.7218 49.3736C14.739 49.3442 14.744 49.3092 14.7357 49.2762L13.7731 46.542Z" fill="#004AAD"/>
<path d="M15.4306 46.1494L16.8881 47.8323C16.9123 47.8558 16.9448 47.869 16.9786 47.869C17.0123 47.869 17.0448 47.8558 17.069 47.8323C17.0811 47.8205 17.0907 47.8064 17.0973 47.7909C17.1038 47.7753 17.1072 47.7587 17.1072 47.7418C17.1072 47.7249 17.1038 47.7082 17.0973 47.6927C17.0907 47.6772 17.0811 47.6631 17.069 47.6513L15.4306 46.1494Z" fill="#004AAD"/>
<path d="M15.5725 44.8682L17.7128 45.1549C17.7462 45.1588 17.7798 45.1496 17.8065 45.1292C17.8333 45.1089 17.851 45.0789 17.8561 45.0457C17.8585 45.0291 17.8576 45.0121 17.8534 44.9959C17.8492 44.9797 17.8418 44.9644 17.8316 44.9511C17.8214 44.9377 17.8087 44.9265 17.7942 44.9182C17.7796 44.9098 17.7635 44.9044 17.7469 44.9023L17.7298 44.9023L15.5725 44.8682Z" fill="#004AAD"/>
<path d="M15.1413 42.7968L16.6876 42.0219C16.7054 42.0161 16.7216 42.0065 16.7353 41.9938C16.749 41.981 16.7598 41.9655 16.7669 41.9482C16.7741 41.931 16.7774 41.9124 16.7766 41.8937C16.7759 41.875 16.7711 41.8567 16.7627 41.8401C16.7542 41.8234 16.7423 41.8088 16.7276 41.7971C16.713 41.7855 16.696 41.7772 16.6779 41.7728C16.6597 41.7683 16.6408 41.7679 16.6225 41.7714C16.6041 41.7749 16.5868 41.7824 16.5716 41.7932L15.1413 42.7968Z" fill="#004AAD"/>
<path d="M13.8853 42.4965L14.7216 41.056C14.7379 41.026 14.7421 40.9908 14.7332 40.9577C14.7243 40.9247 14.703 40.8963 14.6738 40.8785C14.6592 40.8701 14.6432 40.8646 14.6265 40.8624C14.6098 40.8602 14.5929 40.8614 14.5767 40.8658C14.5605 40.8703 14.5453 40.8779 14.5321 40.8883C14.5189 40.8987 14.5078 40.9116 14.4997 40.9263L14.4997 40.9434L13.8853 42.4965Z" fill="#004AAD"/>
<path d="M12.0554 42.0566L11.4956 40.0836C11.4911 40.0675 11.4835 40.0524 11.4732 40.0392C11.4629 40.026 11.4501 40.015 11.4355 40.0067C11.4209 39.9985 11.4048 39.9932 11.3882 39.9912C11.3716 39.9891 11.3547 39.9904 11.3386 39.9949C11.3225 39.9994 11.3074 40.007 11.2942 40.0173C11.281 40.0276 11.2699 40.0404 11.2617 40.055C11.2534 40.0696 11.2482 40.0857 11.2461 40.1023C11.2441 40.1189 11.2454 40.1358 11.2498 40.1519C11.2498 40.1519 11.2498 40.1519 11.2498 40.169L12.0554 42.0566Z" fill="#004AAD"/>
<path d="M10.9556 42.4457L9.86325 41.4216C9.85171 41.4068 9.83707 41.3946 9.82037 41.386C9.80366 41.3774 9.78527 41.3725 9.76649 41.3717C9.7477 41.3709 9.72897 41.3742 9.71158 41.3813C9.69419 41.3885 9.67856 41.3993 9.66578 41.4131C9.65299 41.4269 9.64335 41.4433 9.63754 41.4612C9.63172 41.4791 9.62986 41.498 9.63209 41.5167C9.63431 41.5353 9.64057 41.5533 9.65042 41.5693C9.66028 41.5853 9.67351 41.599 9.68917 41.6094L10.9556 42.4457Z" fill="#004AAD"/>
<path d="M10.9661 44.5446L9.5802 44.2715C9.56264 44.2657 9.54404 44.2637 9.52563 44.2656C9.50723 44.2675 9.48946 44.2734 9.47351 44.2828C9.45755 44.2921 9.44378 44.3048 9.43313 44.3199C9.42248 44.3351 9.41519 44.3523 9.41175 44.3705C9.40831 44.3887 9.4088 44.4074 9.41319 44.4254C9.41758 44.4433 9.42575 44.4602 9.43718 44.4747C9.44861 44.4893 9.46302 44.5012 9.47944 44.5097C9.49587 44.5183 9.51393 44.5232 9.5324 44.5241L9.55288 44.5241L10.9661 44.5446Z" fill="#004AAD"/>
<path d="M11.2493 43.8078L9.85999 43.0603C9.8452 43.0524 9.82901 43.0476 9.81234 43.046C9.79567 43.0444 9.77885 43.0461 9.76285 43.051C9.74684 43.0559 9.73195 43.064 9.71904 43.0746C9.70613 43.0853 9.69546 43.0984 9.68761 43.1132C9.67977 43.128 9.67491 43.1442 9.67332 43.1608C9.67173 43.1775 9.67345 43.1943 9.67836 43.2103C9.68328 43.2263 9.69129 43.2412 9.70196 43.2541C9.71262 43.267 9.72573 43.2777 9.74052 43.2856L9.75758 43.2856L11.2493 43.8078Z" fill="#004AAD"/>
<path d="M11.2213 45.4736L10.1973 45.6921C10.1638 45.6995 10.1347 45.7197 10.1161 45.7485C10.0976 45.7773 10.0912 45.8122 10.0983 45.8457C10.1056 45.8791 10.1259 45.9083 10.1547 45.9268C10.1835 45.9454 10.2184 45.9518 10.2519 45.9447L10.2826 45.9447L11.2213 45.4736Z" fill="#004AAD"/>
<path d="M11.9191 46.3784L10.895 47.836C10.8751 47.864 10.8672 47.8989 10.8729 47.9328C10.8787 47.9667 10.8977 47.997 10.9257 48.0169C10.9538 48.0368 10.9886 48.0447 11.0226 48.039C11.0565 48.0332 11.0867 48.0142 11.1067 47.9862L11.1067 47.9691L11.9191 46.3784Z" fill="#004AAD"/>
<path d="M115.704 22.0136L116.332 13.6335C116.333 13.6021 116.329 13.5708 116.318 13.5412C116.308 13.5116 116.291 13.4844 116.27 13.4611C116.249 13.4378 116.224 13.4188 116.195 13.4054C116.167 13.3919 116.136 13.3842 116.105 13.3826C116.073 13.3811 116.042 13.3857 116.012 13.3962C115.983 13.4068 115.956 13.4231 115.932 13.4442C115.909 13.4652 115.89 13.4907 115.877 13.5191C115.863 13.5475 115.855 13.5782 115.854 13.6096L115.704 22.0136Z" fill="#004AAD"/>
<path d="M114.218 23.7491L105.879 17.7516C105.853 17.7321 105.824 17.7179 105.792 17.7101C105.761 17.7022 105.728 17.7008 105.696 17.7059C105.665 17.711 105.634 17.7225 105.607 17.7398C105.579 17.757 105.556 17.7796 105.537 17.8062C105.517 17.8316 105.502 17.8609 105.494 17.8924C105.485 17.924 105.483 17.9569 105.489 17.9891C105.494 18.0213 105.506 18.0521 105.523 18.0794C105.541 18.1067 105.565 18.1299 105.592 18.1476L114.218 23.7491Z" fill="#004AAD"/>
<path d="M113.366 25.8359L105.113 28.2254C105.082 28.2336 105.054 28.2478 105.029 28.2671C105.005 28.2864 104.984 28.3104 104.969 28.3378C104.954 28.3651 104.944 28.3952 104.941 28.4263C104.937 28.4574 104.94 28.4889 104.949 28.5189C104.966 28.5794 105.007 28.6305 105.062 28.6612C105.117 28.6919 105.182 28.6996 105.242 28.6828L113.366 25.8359Z" fill="#004AAD"/>
<path d="M114.811 27.0715L110.564 35.6598C110.542 35.7156 110.542 35.7776 110.563 35.8336C110.585 35.8896 110.626 35.9355 110.68 35.9622C110.734 35.9888 110.796 35.9943 110.853 35.9775C110.911 35.9607 110.96 35.9228 110.991 35.8714L114.811 27.0715Z" fill="#004AAD"/>
<path d="M116.802 27.4241L118.997 35.7359C119.005 35.7659 119.019 35.7941 119.037 35.8188C119.056 35.8436 119.08 35.8644 119.106 35.8801C119.133 35.8958 119.163 35.906 119.193 35.9103C119.224 35.9145 119.255 35.9127 119.286 35.9048C119.316 35.897 119.344 35.8833 119.368 35.8646C119.393 35.8458 119.414 35.8224 119.43 35.7956C119.445 35.7688 119.456 35.7392 119.46 35.7085C119.464 35.6777 119.462 35.6464 119.454 35.6164L116.802 27.4241Z" fill="#004AAD"/>
<path d="M118.399 25.5559L125.595 28.3618C125.624 28.3734 125.655 28.3791 125.686 28.3787C125.717 28.3783 125.748 28.3717 125.776 28.3593C125.805 28.3469 125.831 28.329 125.852 28.3066C125.874 28.2842 125.891 28.2577 125.902 28.2287C125.925 28.1702 125.923 28.1053 125.898 28.0478C125.873 27.9904 125.827 27.945 125.769 27.9214L118.399 25.5559Z" fill="#004AAD"/>
<path d="M117.979 23.3744L123.826 18.8993C123.855 18.882 123.88 18.8587 123.899 18.831C123.918 18.8033 123.932 18.7718 123.938 18.7387C123.944 18.7055 123.943 18.6713 123.936 18.6385C123.928 18.6057 123.913 18.5749 123.892 18.5482C123.872 18.5214 123.846 18.4994 123.816 18.4835C123.786 18.4676 123.753 18.4582 123.719 18.4559C123.686 18.4536 123.652 18.4584 123.62 18.4702C123.589 18.4819 123.56 18.5002 123.536 18.5238L117.979 23.3744Z" fill="#004AAD"/>
<path d="M116.425 23.2689L118.606 20.0944C118.626 20.0684 118.64 20.0386 118.648 20.0069C118.655 19.9752 118.656 19.9423 118.651 19.9102C118.645 19.8781 118.632 19.8476 118.614 19.8205C118.596 19.7935 118.572 19.7705 118.545 19.753C118.519 19.7343 118.489 19.721 118.457 19.7139C118.426 19.7068 118.393 19.7061 118.361 19.7118C118.329 19.7176 118.299 19.7296 118.272 19.7472C118.245 19.7648 118.222 19.7877 118.204 19.8145C118.202 19.8235 118.202 19.8327 118.204 19.8418L116.425 23.2689Z" fill="#004AAD"/>
<path d="M114.975 23.3533L113.32 20.899C113.303 20.8711 113.281 20.8468 113.255 20.8278C113.228 20.8087 113.198 20.7952 113.167 20.788C113.135 20.7809 113.102 20.7803 113.07 20.7863C113.038 20.7923 113.008 20.8048 112.981 20.8229C112.954 20.841 112.931 20.8645 112.913 20.8918C112.896 20.9191 112.884 20.9497 112.879 20.9817C112.873 21.0138 112.874 21.0466 112.882 21.0781C112.89 21.1097 112.904 21.1393 112.924 21.1653L112.948 21.196L114.975 23.3533Z" fill="#004AAD"/>
<path d="M114.398 24.6336L111.189 23.6949C111.129 23.6772 111.064 23.6842 111.009 23.7143C110.954 23.7444 110.914 23.7951 110.896 23.8553C110.878 23.9155 110.885 23.9802 110.915 24.0353C110.945 24.0904 110.996 24.1312 111.056 24.1489L111.087 24.1489L114.398 24.6336Z" fill="#004AAD"/>
<path d="M114.545 25.801L111.62 28.1905C111.595 28.2103 111.574 28.235 111.558 28.2631C111.543 28.2912 111.533 28.3221 111.53 28.3539C111.527 28.3857 111.53 28.4179 111.54 28.4484C111.549 28.479 111.565 28.5073 111.585 28.5318C111.605 28.5573 111.63 28.5785 111.658 28.5941C111.686 28.6097 111.717 28.6194 111.749 28.6226C111.781 28.6258 111.813 28.6224 111.844 28.6127C111.874 28.6029 111.903 28.587 111.927 28.5659L111.951 28.5455L114.545 25.801Z" fill="#004AAD"/>
<path d="M115.837 26.1609L115.578 29.8816C115.579 29.941 115.603 29.9977 115.644 30.0407C115.685 30.0837 115.74 30.1099 115.8 30.1142C115.859 30.1184 115.917 30.1005 115.964 30.0638C116.011 30.0271 116.042 29.9743 116.052 29.9157L116.052 29.885L115.837 26.1609Z" fill="#004AAD"/>
<path d="M117.111 25.6318L119.159 28.2841C119.177 28.3108 119.201 28.3336 119.228 28.3509C119.256 28.3683 119.286 28.3798 119.318 28.3849C119.35 28.3901 119.383 28.3886 119.415 28.3806C119.446 28.3727 119.476 28.3584 119.501 28.3387C119.527 28.319 119.549 28.2942 119.564 28.2659C119.58 28.2376 119.59 28.2064 119.594 28.1742C119.597 28.1419 119.594 28.1093 119.584 28.0783C119.575 28.0473 119.559 28.0186 119.538 27.994L119.514 27.9701L117.111 25.6318Z" fill="#004AAD"/>
<path d="M117.38 24.3613L120.944 23.8663C121.007 23.8573 121.064 23.8236 121.102 23.7727C121.14 23.7218 121.156 23.6579 121.147 23.5949C121.138 23.532 121.104 23.4753 121.053 23.4372C121.003 23.3991 120.939 23.3828 120.876 23.3918L120.845 23.3918L117.38 24.3613Z" fill="#004AAD"/>
<path d="M111.91 17.8036L110.473 15.5165C110.465 15.503 110.454 15.4913 110.441 15.482C110.429 15.4727 110.414 15.4662 110.399 15.4626C110.384 15.4591 110.368 15.4588 110.352 15.4616C110.337 15.4644 110.322 15.4703 110.309 15.479C110.295 15.4866 110.283 15.4971 110.273 15.5098C110.264 15.5225 110.257 15.537 110.253 15.5525C110.25 15.568 110.25 15.584 110.253 15.5996C110.256 15.6151 110.262 15.6299 110.271 15.6428L111.91 17.8036Z" fill="#004AAD"/>
<path d="M108.07 23.7459L105.448 23.2441C105.433 23.2406 105.417 23.2403 105.402 23.2431C105.386 23.2459 105.372 23.2517 105.359 23.2603C105.345 23.269 105.334 23.2801 105.326 23.2932C105.317 23.3062 105.311 23.3209 105.308 23.3363C105.305 23.3517 105.305 23.3677 105.309 23.3831C105.312 23.3985 105.318 23.4131 105.327 23.4261C105.336 23.4391 105.347 23.4503 105.36 23.4589C105.374 23.4675 105.388 23.4734 105.404 23.4762L108.07 23.7459Z" fill="#004AAD"/>
<path d="M109.624 30.7075L108.191 32.3665C108.17 32.3905 108.159 32.4217 108.162 32.4534C108.164 32.4851 108.179 32.5146 108.203 32.5354C108.227 32.5563 108.258 32.5667 108.29 32.5645C108.321 32.5622 108.351 32.5475 108.372 32.5235L109.624 30.7075Z" fill="#004AAD"/>
<path d="M115.057 33.1167L114.93 35.926C114.93 35.9417 114.933 35.9573 114.938 35.972C114.944 35.9866 114.952 36.0001 114.963 36.0115C114.974 36.0229 114.987 36.0321 115.001 36.0385C115.015 36.0449 115.031 36.0484 115.046 36.0489C115.062 36.0498 115.078 36.0476 115.093 36.0424C115.108 36.0373 115.121 36.0292 115.133 36.0188C115.145 36.0083 115.154 35.9956 115.161 35.9815C115.168 35.9673 115.172 35.9519 115.173 35.9362L115.057 33.1167Z" fill="#004AAD"/>
<path d="M121.139 30.5125L123.228 32.4581C123.252 32.4746 123.281 32.482 123.309 32.4789C123.338 32.4757 123.365 32.4623 123.384 32.4411C123.404 32.4198 123.415 32.3922 123.416 32.3634C123.417 32.3345 123.407 32.3063 123.388 32.284L121.139 30.5125Z" fill="#004AAD"/>
<path d="M124.281 23.196L126.96 22.8547C126.977 22.8548 126.994 22.8513 127.01 22.8445C127.025 22.8377 127.039 22.8276 127.05 22.815C127.062 22.8024 127.07 22.7876 127.075 22.7714C127.08 22.7553 127.082 22.7383 127.08 22.7214C127.078 22.7046 127.073 22.6884 127.064 22.6739C127.055 22.6593 127.044 22.6468 127.03 22.6371C127.016 22.6275 127 22.6208 126.983 22.6177C126.967 22.6146 126.95 22.6151 126.933 22.6191L124.281 23.196Z" fill="#004AAD"/>
<path d="M120.017 16.9774L121.12 14.7075C121.133 14.6784 121.134 14.6455 121.123 14.6155C121.112 14.5856 121.09 14.5611 121.062 14.547C121.048 14.5402 121.032 14.5363 121.017 14.5355C121.001 14.5348 120.985 14.5372 120.971 14.5426C120.956 14.548 120.943 14.5563 120.931 14.5671C120.92 14.5778 120.911 14.5907 120.905 14.6051L120.017 16.9774Z" fill="#004AAD"/>
<path d="M117.34 23.2685L119.269 21.3979C119.291 21.3756 119.303 21.3456 119.303 21.3143C119.303 21.283 119.291 21.253 119.269 21.2307C119.258 21.2194 119.245 21.2104 119.231 21.2043C119.216 21.1982 119.201 21.1951 119.185 21.1951C119.17 21.1951 119.154 21.1982 119.14 21.2043C119.125 21.2104 119.112 21.2194 119.102 21.2307L117.34 23.2685Z" fill="#004AAD"/>
<path d="M116.255 22.1214L116.938 20.1689C116.948 20.139 116.946 20.1065 116.931 20.0784C116.917 20.0502 116.893 20.0288 116.863 20.0187C116.849 20.0133 116.833 20.0109 116.818 20.0116C116.802 20.0123 116.787 20.0161 116.773 20.0228C116.759 20.0295 116.746 20.0389 116.736 20.0505C116.726 20.0621 116.718 20.0757 116.713 20.0904L116.255 22.1214Z" fill="#004AAD"/>
<path d="M115.173 22.6023L114.415 20.7522C114.409 20.7376 114.4 20.7243 114.389 20.7131C114.378 20.7019 114.365 20.6931 114.35 20.687C114.335 20.681 114.32 20.6779 114.304 20.678C114.288 20.678 114.272 20.6812 114.258 20.6874C114.243 20.693 114.23 20.7015 114.219 20.7123C114.208 20.7231 114.199 20.7361 114.193 20.7504C114.187 20.7648 114.184 20.7802 114.184 20.7957C114.184 20.8113 114.187 20.8267 114.193 20.841L115.173 22.6023Z" fill="#004AAD"/>
<path d="M113.697 23.9112L112.355 23.0271C112.343 23.0183 112.328 23.0121 112.313 23.0091C112.297 23.006 112.282 23.0061 112.266 23.0093C112.251 23.0125 112.236 23.0187 112.224 23.0276C112.211 23.0366 112.2 23.048 112.192 23.0612C112.183 23.0741 112.177 23.0887 112.174 23.104C112.17 23.1193 112.171 23.1351 112.174 23.1504C112.177 23.1657 112.183 23.1802 112.192 23.1931C112.201 23.2059 112.212 23.2168 112.226 23.2251L113.697 23.9112Z" fill="#004AAD"/>
<path d="M114.041 25.0532L112.495 25.0532C112.463 25.0532 112.433 25.0658 112.411 25.0882C112.388 25.1106 112.376 25.141 112.376 25.1727C112.376 25.2044 112.388 25.2348 112.411 25.2572C112.433 25.2796 112.463 25.2922 112.495 25.2922L114.041 25.0532Z" fill="#004AAD"/>
<path d="M114.531 26.7297L113.207 28.0951C113.195 28.106 113.186 28.1189 113.18 28.1333C113.174 28.1477 113.171 28.1631 113.171 28.1788C113.171 28.1944 113.174 28.2098 113.18 28.2242C113.186 28.2386 113.195 28.2516 113.207 28.2624C113.229 28.2843 113.259 28.2965 113.29 28.2965C113.321 28.2965 113.352 28.2843 113.374 28.2624L114.531 26.7297Z" fill="#004AAD"/>
<path d="M115.353 27.4336L115.046 28.7785C115.042 28.794 115.042 28.81 115.044 28.8256C115.047 28.8412 115.053 28.8562 115.062 28.8695C115.07 28.8829 115.081 28.8944 115.094 28.9033C115.107 28.9123 115.122 28.9186 115.138 28.9219C115.153 28.9254 115.168 28.9259 115.184 28.9233C115.199 28.9207 115.213 28.9151 115.226 28.9069C115.239 28.8986 115.251 28.8878 115.259 28.8752C115.268 28.8625 115.274 28.8482 115.278 28.8331C115.279 28.8264 115.279 28.8194 115.278 28.8126L115.353 27.4336Z" fill="#004AAD"/>
<path d="M117.036 26.4509L117.459 27.69C117.47 27.7198 117.491 27.7443 117.519 27.7584C117.547 27.7725 117.58 27.7749 117.61 27.7651C117.64 27.7543 117.664 27.7322 117.678 27.7035C117.692 27.6748 117.695 27.6418 117.685 27.6115L117.036 26.4509Z" fill="#004AAD"/>
<path d="M116.313 26.5801L116.354 28.041C116.356 28.0724 116.37 28.102 116.393 28.1236C116.415 28.1451 116.446 28.1571 116.477 28.1571C116.493 28.1567 116.508 28.1531 116.523 28.1467C116.537 28.1403 116.55 28.1311 116.561 28.1197C116.571 28.1083 116.58 28.0949 116.585 28.0802C116.591 28.0655 116.594 28.0499 116.593 28.0342C116.595 28.0275 116.595 28.0205 116.593 28.0137L116.313 26.5801Z" fill="#004AAD"/>
<path d="M117.661 25.8157L118.306 26.5223C118.329 26.5442 118.359 26.5564 118.39 26.5564C118.421 26.5564 118.451 26.5442 118.474 26.5223C118.485 26.5114 118.494 26.4984 118.5 26.4841C118.506 26.4697 118.509 26.4542 118.509 26.4386C118.509 26.423 118.506 26.4076 118.5 26.3932C118.494 26.3788 118.485 26.3658 118.474 26.355L118.45 26.3345L117.661 25.8157Z" fill="#004AAD"/>
<path d="M118.072 24.8354L119.72 24.9856C119.737 24.9896 119.754 24.99 119.771 24.9868C119.788 24.9836 119.803 24.9768 119.817 24.967C119.831 24.9571 119.843 24.9444 119.852 24.9296C119.86 24.9149 119.865 24.8985 119.867 24.8815C119.869 24.8646 119.867 24.8474 119.862 24.8313C119.856 24.8151 119.847 24.8003 119.836 24.7878C119.824 24.7754 119.81 24.7656 119.794 24.7591C119.778 24.7525 119.761 24.7495 119.744 24.7501L118.072 24.8354Z" fill="#004AAD"/>
<path d="M60.3284 13.1679L53.1772 3.42931C53.152 3.39007 53.1191 3.3564 53.0804 3.33037C53.0417 3.30434 52.9981 3.28652 52.9523 3.27798C52.9065 3.26945 52.8594 3.2704 52.8139 3.28076C52.7685 3.29113 52.7256 3.31069 52.688 3.33825C52.6504 3.3658 52.6189 3.40077 52.5953 3.44099C52.5717 3.48121 52.5567 3.52583 52.551 3.5721C52.5453 3.61837 52.5492 3.66531 52.5624 3.71003C52.5756 3.75474 52.5977 3.79629 52.6276 3.8321L60.3284 13.1679Z" fill="#004AAD"/>
<path d="M60.3284 16.4521L45.6163 17.7049C45.5258 17.7126 45.442 17.7559 45.3835 17.8254C45.3249 17.8948 45.2963 17.9847 45.304 18.0753C45.3117 18.1658 45.355 18.2495 45.4245 18.3081C45.494 18.3667 45.5838 18.3953 45.6744 18.3876L45.6914 18.3876L60.3284 16.4521Z" fill="#004AAD"/>
<path d="M61.3513 19.5249L54.5756 29.8575C54.5258 29.9335 54.5083 30.0262 54.5268 30.1152C54.5454 30.2042 54.5985 30.2821 54.6746 30.3319C54.7122 30.3566 54.7544 30.3736 54.7986 30.382C54.8428 30.3903 54.8883 30.3899 54.9323 30.3807C55.0213 30.3621 55.0993 30.309 55.1491 30.2329L61.3513 19.5249Z" fill="#004AAD"/>
<path d="M64.0828 19.5256L67.4963 32.8723C67.5189 32.9601 67.5755 33.0353 67.6536 33.0814C67.7317 33.1275 67.8249 33.1407 67.9127 33.1181C68.0005 33.0954 68.0758 33.0388 68.1219 32.9607C68.1679 32.8826 68.1811 32.7894 68.1585 32.7016L64.0828 19.5256Z" fill="#004AAD"/>
<path d="M66.589 18.0459L76.7543 25.0674C76.7914 25.0933 76.8333 25.1115 76.8775 25.121C76.9217 25.1306 76.9673 25.1312 77.0118 25.123C77.0563 25.1147 77.0986 25.0977 77.1365 25.0729C77.1743 25.0481 77.2068 25.0161 77.2322 24.9786C77.2833 24.904 77.3027 24.812 77.286 24.723C77.2694 24.6341 77.2181 24.5553 77.1434 24.5042L66.589 18.0459Z" fill="#004AAD"/>
<path d="M66.5889 14.5202L77.0648 10.8542C77.1497 10.824 77.2192 10.7615 77.2582 10.6803C77.2972 10.5991 77.3025 10.5058 77.273 10.4207C77.2598 10.3771 77.2381 10.3366 77.209 10.3016C77.1799 10.2665 77.1441 10.2377 77.1037 10.2167C77.0633 10.1957 77.0191 10.183 76.9738 10.1793C76.9284 10.1757 76.8827 10.1811 76.8395 10.1954L76.819 10.1954L66.5889 14.5202Z" fill="#004AAD"/>
<path d="M64.0837 12.526L66.282 2.17633C66.2914 2.13151 66.2919 2.08527 66.2834 2.04025C66.275 1.99523 66.2577 1.95232 66.2327 1.91397C66.2076 1.87562 66.1753 1.84257 66.1375 1.81672C66.0997 1.79087 66.0571 1.77272 66.0123 1.7633C65.9675 1.75389 65.9212 1.7534 65.8762 1.76186C65.8312 1.77031 65.7883 1.78756 65.75 1.8126C65.7116 1.83764 65.6786 1.86999 65.6527 1.9078C65.6269 1.94561 65.6087 1.98814 65.5993 2.03297C65.5993 2.03297 65.5993 2.03297 65.5993 2.05686L64.0837 12.526Z" fill="#004AAD"/>
<path d="M62.2921 13.864L61.6914 8.34443C61.6864 8.29961 61.6727 8.25619 61.651 8.21666C61.6293 8.17713 61.6 8.14227 61.5648 8.11406C61.5296 8.08585 61.4892 8.06484 61.4459 8.05225C61.4026 8.03965 61.3573 8.0357 61.3125 8.04063C61.2676 8.04556 61.2242 8.05927 61.1847 8.08098C61.1452 8.10269 61.1103 8.13198 61.0821 8.16716C61.0539 8.20235 61.0329 8.24274 61.0203 8.28604C61.0077 8.32934 61.0037 8.3747 61.0087 8.41953C61.007 8.43313 61.007 8.44688 61.0087 8.46049L62.2921 13.864Z" fill="#004AAD"/>
<path d="M60.7865 15.3148L56.6903 14.1816C56.6025 14.1576 56.5088 14.1695 56.4297 14.2146C56.3507 14.2597 56.2928 14.3344 56.2688 14.4222C56.2448 14.51 56.2567 14.6038 56.3018 14.6828C56.3469 14.7619 56.4216 14.8198 56.5094 14.8438L56.564 14.8438L60.7865 15.3148Z" fill="#004AAD"/>
<path d="M61.353 17.2507L56.9701 19.2237C56.8873 19.2613 56.8228 19.3302 56.7908 19.4154C56.7588 19.5005 56.7619 19.5949 56.7995 19.6777C56.837 19.7605 56.906 19.8251 56.9911 19.8571C57.0763 19.8891 57.1706 19.886 57.2535 19.8484C57.2682 19.8425 57.282 19.8344 57.2944 19.8245L61.353 17.2507Z" fill="#004AAD"/>
<path d="M62.6051 18.3872L61.6391 23.7225C61.6307 23.7669 61.6313 23.8125 61.6407 23.8567C61.6501 23.9009 61.6682 23.9428 61.6939 23.9799C61.7196 24.0171 61.7525 24.0487 61.7905 24.0731C61.8286 24.0975 61.8711 24.114 61.9156 24.1218C61.96 24.1302 62.0056 24.1297 62.0498 24.1202C62.094 24.1108 62.1359 24.0927 62.173 24.067C62.2102 24.0413 62.2419 24.0085 62.2662 23.9704C62.2906 23.9324 62.3072 23.8898 62.315 23.8453C62.315 23.8453 62.315 23.818 62.315 23.8044L62.6051 18.3872Z" fill="#004AAD"/>
<path d="M64.3526 17.5691L67.5476 21.8735C67.5743 21.9096 67.6078 21.94 67.6462 21.9632C67.6847 21.9863 67.7273 22.0016 67.7717 22.0083C67.8161 22.0149 67.8613 22.0128 67.9049 22.002C67.9484 21.9911 67.9894 21.9718 68.0255 21.9452C68.0616 21.9185 68.092 21.885 68.1152 21.8465C68.1383 21.8081 68.1536 21.7654 68.1603 21.7211C68.1669 21.6767 68.1648 21.6314 68.154 21.5879C68.1431 21.5443 68.1238 21.5034 68.0971 21.4673C68.09 21.4545 68.0808 21.4429 68.0698 21.4331L64.3526 17.5691Z" fill="#004AAD"/>
<path d="M65.247 15.804L69.9541 16.7904C70.0447 16.809 70.1389 16.7908 70.216 16.7399C70.2931 16.6891 70.3469 16.6096 70.3655 16.5191C70.384 16.4285 70.3659 16.3344 70.315 16.2572C70.2641 16.1801 70.1846 16.1263 70.0941 16.1078L70.0463 16.1078L65.247 15.804Z" fill="#004AAD"/>
<path d="M64.3535 14.1652L67.767 10.291C67.8034 10.2228 67.8156 10.1444 67.8016 10.0684C67.7876 9.99244 67.7483 9.92346 67.6901 9.87273C67.6318 9.82201 67.5581 9.79254 67.4809 9.78915C67.4037 9.78575 67.3277 9.80863 67.2652 9.85404L67.2379 9.89159L64.3535 14.1652Z" fill="#004AAD"/>
<path d="M52.2532 12.1236L48.5393 10.9699C48.5181 10.9625 48.4955 10.9597 48.4731 10.9614C48.4507 10.9632 48.4288 10.9696 48.409 10.9801C48.3891 10.9907 48.3717 11.0053 48.3577 11.0229C48.3437 11.0405 48.3335 11.0608 48.3277 11.0825C48.3209 11.1038 48.3184 11.1262 48.3204 11.1485C48.3224 11.1707 48.3288 11.1924 48.3393 11.2121C48.3498 11.2318 48.3642 11.2493 48.3815 11.2633C48.3989 11.2774 48.4189 11.2879 48.4403 11.2941L52.2532 12.1236Z" fill="#004AAD"/>
<path d="M53.6171 22.2007L50.2821 24.102C50.2432 24.1255 50.2148 24.163 50.2027 24.2068C50.1906 24.2506 50.1958 24.2974 50.2172 24.3375C50.2407 24.3765 50.2785 24.4048 50.3225 24.4162C50.3665 24.4277 50.4133 24.4215 50.4528 24.399L53.6171 22.2007Z" fill="#004AAD"/>
<path d="M61.8231 28.345L61.8231 31.4922C61.8231 31.5375 61.8411 31.5809 61.8731 31.6129C61.9051 31.6449 61.9485 31.6629 61.9938 31.6629C62.039 31.6629 62.0824 31.6449 62.1144 31.6129C62.1465 31.5809 62.1644 31.5375 62.1644 31.4922L62.1644 31.4717L61.8231 28.345Z" fill="#004AAD"/>
<path d="M70.0009 25.8975L72.4859 29.0788C72.499 29.0981 72.5159 29.1145 72.5355 29.127C72.5552 29.1395 72.5772 29.1479 72.6002 29.1516C72.6232 29.1552 72.6467 29.1542 72.6693 29.1484C72.6919 29.1427 72.713 29.1324 72.7315 29.1181C72.7499 29.1039 72.7653 29.086 72.7765 29.0656C72.7878 29.0452 72.7948 29.0228 72.797 28.9996C72.7993 28.9764 72.7968 28.953 72.7897 28.9308C72.7825 28.9086 72.7709 28.8881 72.7556 28.8706L70.0009 25.8975Z" fill="#004AAD"/>
<path d="M74.2107 17.4484L78.3069 17.5781C78.4025 17.5781 78.481 17.5781 78.4844 17.4757C78.4878 17.3733 78.4161 17.363 78.3205 17.363L74.2107 17.4484Z" fill="#004AAD"/>
<path d="M70.7985 6.43951L73.4063 3.56196C73.4378 3.52948 73.4554 3.48602 73.4554 3.44078C73.4554 3.39555 73.4378 3.35209 73.4063 3.31961C73.3739 3.28812 73.3304 3.27051 73.2852 3.27051C73.2399 3.27051 73.1965 3.28812 73.164 3.31961L70.7985 6.43951Z" fill="#004AAD"/>
<path d="M60.3267 3.63889L59.405 0.133258C59.3994 0.110845 59.3895 0.0897548 59.3757 0.071192C59.362 0.0526292 59.3447 0.0369568 59.3249 0.0250704C59.3051 0.0131841 59.2831 0.00531625 59.2603 0.00191588C59.2374 -0.0014845 59.2141 -0.000350035 59.1917 0.00525325C59.1693 0.0108565 59.1482 0.0208195 59.1296 0.0345734C59.1111 0.0483273 59.0954 0.065602 59.0835 0.0854126C59.0716 0.105223 59.0638 0.127181 59.0604 0.150032C59.057 0.172884 59.0581 0.196182 59.0637 0.218595L60.3267 3.63889Z" fill="#004AAD"/>
<path d="M63.2877 13.0115L63.6291 9.17134C63.6331 9.12608 63.6191 9.08105 63.5899 9.04616C63.5608 9.01127 63.519 8.98938 63.4738 8.98531C63.4285 8.98124 63.3835 8.99531 63.3486 9.02444C63.3137 9.05356 63.2918 9.09536 63.2877 9.14062L63.2877 13.0115Z" fill="#004AAD"/>
<path d="M61.0278 12.7732L59.9424 10.0117C59.9343 9.99065 59.9221 9.97138 59.9066 9.955C59.8911 9.93863 59.8725 9.92547 59.8519 9.91627C59.8313 9.90708 59.8091 9.90204 59.7865 9.90143C59.764 9.90082 59.7415 9.90466 59.7205 9.91273C59.6994 9.9208 59.6801 9.93294 59.6638 9.94845C59.6474 9.96397 59.6342 9.98256 59.625 10.0032C59.6158 10.0238 59.6108 10.046 59.6102 10.0685C59.6096 10.0911 59.6134 10.1135 59.6215 10.1346L59.6215 10.1551L61.0278 12.7732Z" fill="#004AAD"/>
<path d="M60.283 14.3199L57.7229 13.0125C57.703 13.002 57.6812 12.9957 57.6588 12.9938C57.6364 12.9919 57.6139 12.9945 57.5926 13.0015C57.5712 13.0085 57.5515 13.0198 57.5346 13.0346C57.5177 13.0493 57.5039 13.0674 57.4942 13.0876C57.4737 13.1275 57.4697 13.1739 57.4831 13.2167C57.4965 13.2595 57.5262 13.2953 57.5658 13.3163L57.5863 13.3163L60.283 14.3199Z" fill="#004AAD"/>
<path d="M59.9087 17.1147L57.6217 17.4015C57.5764 17.4074 57.5353 17.431 57.5075 17.4672C57.4796 17.5033 57.4673 17.5491 57.4732 17.5943C57.4791 17.6396 57.5027 17.6807 57.5389 17.7085C57.575 17.7364 57.6208 17.7487 57.666 17.7428L57.6899 17.7428L59.9087 17.1147Z" fill="#004AAD"/>
<path d="M61.3513 18.0476L59.6651 19.4915C59.648 19.5061 59.634 19.5239 59.6239 19.5438C59.6137 19.5638 59.6076 19.5856 59.6058 19.6079C59.6041 19.6303 59.6068 19.6528 59.6137 19.6741C59.6207 19.6954 59.6317 19.7151 59.6463 19.7322C59.6609 19.7492 59.6787 19.7632 59.6986 19.7733C59.7186 19.7835 59.7404 19.7896 59.7627 19.7914C59.7851 19.7931 59.8076 19.7904 59.8289 19.7835C59.8502 19.7766 59.8699 19.7655 59.8869 19.7509L61.3513 18.0476Z" fill="#004AAD"/>
<path d="M63.4609 19.4104L63.2902 22.1412C63.2889 22.1636 63.2919 22.1861 63.2992 22.2073C63.3066 22.2285 63.318 22.2481 63.3329 22.2649C63.3478 22.2817 63.3659 22.2954 63.3861 22.3053C63.4063 22.3151 63.4283 22.3208 63.4507 22.3221C63.4731 22.3235 63.4956 22.3204 63.5168 22.3131C63.5381 22.3058 63.5576 22.2943 63.5744 22.2794C63.5913 22.2645 63.605 22.2465 63.6148 22.2262C63.6246 22.206 63.6303 22.1841 63.6316 22.1617L63.6316 22.1412L63.4609 19.4104Z" fill="#004AAD"/>
<path d="M65.0158 19.4116L65.9374 21.1661C65.9585 21.2066 65.9947 21.2371 66.0381 21.2512C66.0815 21.2652 66.1287 21.2616 66.1695 21.2412C66.1896 21.2308 66.2074 21.2165 66.2218 21.1992C66.2363 21.1818 66.2472 21.1618 66.2539 21.1402C66.2605 21.1186 66.2629 21.0959 66.2607 21.0734C66.2585 21.0509 66.2519 21.029 66.2412 21.0091C66.2419 21.0012 66.2419 20.9932 66.2412 20.9852L65.0158 19.4116Z" fill="#004AAD"/>
<path d="M65.9292 16.7661L67.5506 17.7219C67.5697 17.7341 67.5911 17.7423 67.6135 17.7461C67.6359 17.7498 67.6588 17.7489 67.6809 17.7434C67.7029 17.738 67.7236 17.7282 67.7417 17.7145C67.7598 17.7008 67.7749 17.6836 67.7862 17.6639C67.8087 17.6244 67.8149 17.5776 67.8034 17.5336C67.792 17.4895 67.7637 17.4518 67.7247 17.4283L67.6974 17.4283L65.9292 16.7661Z" fill="#004AAD"/>
<path d="M65.246 17.5686L66.6592 19.1251C66.6914 19.1529 66.7326 19.1679 66.7751 19.1674C66.8176 19.1669 66.8584 19.1509 66.8899 19.1223C66.9213 19.0938 66.9413 19.0547 66.946 19.0125C66.9506 18.9702 66.9397 18.9278 66.9152 18.893L66.8947 18.893L65.246 17.5686Z" fill="#004AAD"/>
<path d="M66.0187 15.4869L67.384 15.6576C67.4065 15.6603 67.4292 15.6585 67.4509 15.6524C67.4726 15.6463 67.493 15.636 67.5107 15.6221C67.5285 15.6081 67.5433 15.5908 67.5544 15.5711C67.5654 15.5515 67.5725 15.5298 67.5752 15.5074C67.5779 15.485 67.5761 15.4622 67.57 15.4405C67.5639 15.4188 67.5536 15.3984 67.5397 15.3807C67.5257 15.3629 67.5084 15.3481 67.4888 15.3371C67.4691 15.326 67.4474 15.3189 67.425 15.3162C67.4114 15.3145 67.3976 15.3145 67.384 15.3162L66.0187 15.4869Z" fill="#004AAD"/>
<path d="M65.549 14.0345L67.4946 12.6691C67.5312 12.6424 67.5559 12.6025 67.5635 12.5579C67.5712 12.5133 67.5612 12.4675 67.5356 12.4302C67.5227 12.4117 67.5062 12.396 67.4872 12.3839C67.4681 12.3719 67.4469 12.3637 67.4247 12.3599C67.4024 12.3561 67.3797 12.3567 67.3577 12.3617C67.3358 12.3668 67.315 12.3761 67.2967 12.3892L67.2762 12.3892L65.549 14.0345Z" fill="#004AAD"/>
</svg>
