<svg xmlns="http://www.w3.org/2000/svg"  viewBox="0 0 48 48" width="48px" height="48px"><defs><linearGradient id="4V9-3HI2bb0KMxitVH467a" x1="6" x2="41.9" y1="24" y2="24" gradientUnits="userSpaceOnUse"><stop offset=".11" stop-color="#0d62ab"/><stop offset="1" stop-color="#007ad9"/></linearGradient></defs><path fill="url(#4V9-3HI2bb0KMxitVH467a)" d="m13.3,15.1c-4.6,2.8-7.3,6.8-7.3,6.8,0,0,.7-8.4,7.3-13.3,2.6-2,6.2-3.6,11-3.6,1.8,0,5.6.3,9,2.4,3.4,2.1,4.8,3.8,6.4,6.3.7,1.1,1.2,2.5,1.5,3.8.6,2.5.7,5.6.7,5.6v3.9h-24.9s-.1,8.1,11.2,8.1c3.9,0,5.3-.6,6.6-1,2-.6,4.2-2.1,4.2-2.1v8s-4.9,3-11.9,3c-2,0-4-.2-6-.8-1.7-.6-5.4-2-7.8-5.5-.9-1.2-1.8-2.9-2.3-4.5-.5-1.7-.5-3.4-.5-4.3,0-3.5,1.2-6.8,3.3-9.2,2.8-3.1,6.2-4.7,6.2-4.7,0,0-3,2.8-3,6h14s.1-8-7.7-8c-3.2,0-7.2,1.4-10,3.1Z"/></svg>