<svg width="149" height="83" viewBox="0 0 149 83" fill="none" xmlns="http://www.w3.org/2000/svg">
<path d="M69.8829 12.4074C72.3537 5.16081 70.3703 0 64.342 0C60.5506 0 55.8479 2.03216 51.267 5.33624C50.7504 3.45028 49.2933 2.32455 46.9493 2.32455C42.8216 2.32455 37.1345 5.81383 32.6754 10.7358C31.42 9.54308 29.758 8.87235 28.0263 8.85963C24.0741 8.63546 19.2934 10.6432 15.1365 13.9035C14.9282 13.6119 14.6532 13.3745 14.3344 13.2108C14.0157 13.0472 13.6624 12.9622 13.3041 12.9629C11.0283 12.8362 7.94352 14.8635 6.41819 17.4853C6.32559 17.6462 6.24275 17.807 6.15503 17.9727H71.0818C71.2767 15.6822 70.8722 13.7719 69.8829 12.4074Z" fill="#F0F0F0"/>
<path d="M70.0827 56.4083C71.2913 52.8703 70.3313 50.3508 67.378 50.3508C65.5213 50.3508 63.226 51.3255 60.9892 52.958C60.8687 52.5033 60.5901 52.1063 60.2034 51.8384C59.8167 51.5704 59.3471 51.4491 58.879 51.4961C56.8664 51.4961 54.0886 53.2017 51.9054 55.6091C51.2934 55.0245 50.4807 54.6967 49.6344 54.6929C47.6851 54.5808 45.3703 55.5604 43.3381 57.1539C43.2396 57.013 43.1093 56.8973 42.9578 56.816C42.8062 56.7347 42.6377 56.6902 42.4658 56.6861C41.3547 56.6227 39.8489 57.612 39.1033 58.8937L38.9717 59.1276H70.687C70.8196 58.178 70.605 57.2124 70.0827 56.4083Z" fill="#F0F0F0"/>
<path d="M143.231 29.6347C142.981 29.5996 142.728 29.5817 142.476 29.5811C142.709 26.048 141.36 23.7868 138.47 23.7868C136.389 23.7868 133.83 24.9661 131.228 26.9593C131.974 20.0977 129.586 15.6387 124.176 15.6387C119.82 15.6387 114.298 18.5626 108.845 23.2702C108.358 20.5802 106.759 18.9623 104.059 18.9623C99.3178 18.9623 92.578 23.9525 87.1735 30.9895C86.5577 30.1781 85.7679 29.5148 84.8622 29.0485C83.9565 28.5822 82.9579 28.3246 81.9396 28.2946C77.427 27.9778 71.8178 30.8433 66.8324 35.5119C66.6511 35.1182 66.3624 34.7837 65.9995 34.5466C65.6366 34.3096 65.2142 34.1796 64.7808 34.1718C62.31 33.9963 58.9329 36.5743 56.9299 40.0197H147.203C149.323 34.7955 147.636 30.2244 143.231 29.6347Z" fill="#F0F0F0"/>
<path d="M0 31.1304L111.096 47.1245L126.004 62.1683L0 31.1304Z" fill="#407BFF"/>
<path opacity="0.6" d="M0 31.1304L111.096 47.1245L126.004 62.1683L0 31.1304Z" fill="white"/>
<path d="M0 31.1304L111.096 47.1245L105.94 68.8788L0 31.1304Z" fill="#407BFF"/>
<path opacity="0.2" d="M0 31.1304L111.096 47.1245L105.94 68.8788L0 31.1304Z" fill="black"/>
<path d="M103.66 5.94493L110.107 36.1593C110.275 36.9483 110.123 37.7715 109.684 38.4485C109.245 39.1255 108.556 39.6009 107.768 39.7704L50.224 52.0511C49.4352 52.2174 48.6125 52.0648 47.9359 51.6265C47.2592 51.1882 46.7836 50.4998 46.6129 49.7119L40.1607 19.4975C39.9944 18.708 40.1477 17.8847 40.5871 17.208C41.0264 16.5312 41.7159 16.056 42.5047 15.8864L100.048 3.60575C100.838 3.43951 101.661 3.59281 102.338 4.03212C103.015 4.47143 103.49 5.16097 103.66 5.9498V5.94493Z" fill="#407BFF"/>
<path opacity="0.4" d="M103.66 5.94493L110.107 36.1593C110.275 36.9483 110.123 37.7715 109.684 38.4485C109.245 39.1255 108.556 39.6009 107.768 39.7704L50.224 52.0511C49.4352 52.2174 48.6125 52.0648 47.9359 51.6265C47.2592 51.1882 46.7836 50.4998 46.6129 49.7119L40.1607 19.4975C39.9944 18.708 40.1477 17.8847 40.5871 17.208C41.0264 16.5312 41.7159 16.056 42.5047 15.8864L100.048 3.60575C100.838 3.43951 101.661 3.59281 102.338 4.03212C103.015 4.47143 103.49 5.16097 103.66 5.9498V5.94493Z" fill="black"/>
<path d="M102.241 3.96644L83.0163 27.5678C81.2333 29.7559 78.7568 31.2699 75.9964 31.8592C73.236 32.4485 70.3571 32.0778 67.836 30.8085L40.6479 17.1146C41.0878 16.4827 41.7516 16.0419 42.5047 15.8816L100.048 3.60095C100.799 3.44113 101.583 3.57172 102.241 3.96644Z" fill="#407BFF"/>
<path d="M0 31.1304L91.6323 52.9091L105.94 68.8788L0 31.1304Z" fill="#407BFF"/>
<path opacity="0.6" d="M0 31.1304L91.6323 52.9091L105.94 68.8788L0 31.1304Z" fill="white"/>
<path d="M33.4253 52.1217L33.179 52.5422L43.3761 58.5153L43.6224 58.0948L33.4253 52.1217Z" fill="#407BFF"/>
<path d="M48.1245 60.7284L47.8782 61.1489L51.5449 63.2968L51.7912 62.8763L48.1245 60.7284Z" fill="#407BFF"/>
<path d="M0 31.1304L91.6323 52.9091L73.8205 74.3759L0 31.1304Z" fill="#407BFF"/>
<path d="M122.563 82.1534C122.44 82.1537 122.317 82.1306 122.202 82.0852L107.28 76.1788C107.042 76.0826 106.851 75.8959 106.749 75.6594C106.647 75.4229 106.644 75.1559 106.738 74.9165C106.833 74.6771 107.018 74.4849 107.254 74.3818C107.49 74.2786 107.757 74.2729 107.997 74.3659L122.924 80.2723C123.135 80.3558 123.31 80.5104 123.42 80.7093C123.529 80.9083 123.565 81.1393 123.523 81.3623C123.48 81.5853 123.361 81.7863 123.185 81.9308C123.01 82.0752 122.79 82.154 122.563 82.1534Z" fill="#407BFF"/>
<path opacity="0.3" d="M122.563 82.1534C122.44 82.1537 122.317 82.1306 122.202 82.0852L107.28 76.1788C107.042 76.0826 106.851 75.8959 106.749 75.6594C106.647 75.4229 106.644 75.1559 106.738 74.9165C106.833 74.6771 107.018 74.4849 107.254 74.3818C107.49 74.2786 107.757 74.2729 107.997 74.3659L122.924 80.2723C123.135 80.3558 123.31 80.5104 123.42 80.7093C123.529 80.9083 123.565 81.1393 123.523 81.3623C123.48 81.5853 123.361 81.7863 123.185 81.9308C123.01 82.0752 122.79 82.154 122.563 82.1534Z" fill="black"/>
<path d="M121.681 73.5961C121.559 73.5953 121.438 73.5705 121.325 73.523L113.309 70.331C113.189 70.2845 113.079 70.2148 112.987 70.1259C112.894 70.037 112.819 69.9306 112.768 69.8128C112.716 69.695 112.689 69.5682 112.686 69.4397C112.684 69.3112 112.707 69.1835 112.754 69.064C112.802 68.9444 112.872 68.8354 112.962 68.7432C113.051 68.651 113.158 68.5774 113.276 68.5266C113.394 68.4759 113.521 68.449 113.65 68.4476C113.778 68.4461 113.906 68.4701 114.025 68.5181L122.042 71.6955C122.282 71.79 122.475 71.976 122.578 72.2127C122.681 72.4493 122.686 72.7172 122.592 72.9577C122.524 73.1443 122.4 73.3056 122.237 73.4197C122.074 73.5338 121.88 73.5953 121.681 73.5961Z" fill="#407BFF"/>
<path opacity="0.5" d="M121.681 73.5961C121.559 73.5953 121.438 73.5705 121.325 73.523L113.309 70.331C113.189 70.2845 113.079 70.2148 112.987 70.1259C112.894 70.037 112.819 69.9306 112.768 69.8128C112.716 69.695 112.689 69.5682 112.686 69.4397C112.684 69.3112 112.707 69.1835 112.754 69.064C112.802 68.9444 112.872 68.8354 112.962 68.7432C113.051 68.651 113.158 68.5774 113.276 68.5266C113.394 68.4759 113.521 68.449 113.65 68.4476C113.778 68.4461 113.906 68.4701 114.025 68.5181L122.042 71.6955C122.282 71.79 122.475 71.976 122.578 72.2127C122.681 72.4493 122.686 72.7172 122.592 72.9577C122.524 73.1443 122.4 73.3056 122.237 73.4197C122.074 73.5338 121.88 73.5953 121.681 73.5961Z" fill="white"/>
<path d="M104.922 82.0268C104.8 82.0254 104.68 82.0023 104.566 81.9586L90.0094 76.1789C89.8896 76.1324 89.7801 76.0627 89.6873 75.9738C89.5945 75.8849 89.5202 75.7785 89.4687 75.6607C89.4172 75.5429 89.3894 75.4161 89.3871 75.2876C89.3848 75.1591 89.4079 75.0314 89.4552 74.9119C89.5024 74.7923 89.5728 74.6833 89.6624 74.5911C89.7519 74.4989 89.8588 74.4253 89.9769 74.3745C90.095 74.3238 90.222 74.2969 90.3505 74.2955C90.479 74.294 90.6066 74.318 90.7258 74.366L105.282 80.1262C105.493 80.2097 105.669 80.3643 105.778 80.5632C105.888 80.7622 105.924 80.9932 105.881 81.2162C105.839 81.4392 105.719 81.6402 105.544 81.7847C105.369 81.9291 105.149 82.0079 104.922 82.0073V82.0268Z" fill="#407BFF"/>
<path opacity="0.3" d="M104.922 82.0268C104.8 82.0254 104.68 82.0023 104.566 81.9586L90.0094 76.1789C89.8896 76.1324 89.7801 76.0627 89.6873 75.9738C89.5945 75.8849 89.5202 75.7785 89.4687 75.6607C89.4172 75.5429 89.3894 75.4161 89.3871 75.2876C89.3848 75.1591 89.4079 75.0314 89.4552 74.9119C89.5024 74.7923 89.5728 74.6833 89.6624 74.5911C89.7519 74.4989 89.8588 74.4253 89.9769 74.3745C90.095 74.3238 90.222 74.2969 90.3505 74.2955C90.479 74.294 90.6066 74.318 90.7258 74.366L105.282 80.1262C105.493 80.2097 105.669 80.3643 105.778 80.5632C105.888 80.7622 105.924 80.9932 105.881 81.2162C105.839 81.4392 105.719 81.6402 105.544 81.7847C105.369 81.9291 105.149 82.0079 104.922 82.0073V82.0268Z" fill="black"/>
</svg>
