<svg width="363" height="272" viewBox="0 0 363 272" fill="none" xmlns="http://www.w3.org/2000/svg">
<path d="M363 238.594H0V238.775H363V238.594Z" fill="#EBEBEB"/>
<path d="M326.628 250.275H302.583V250.457H326.628V250.275Z" fill="#EBEBEB"/>
<path d="M240.465 252.25H234.156V252.431H240.465V252.25Z" fill="#EBEBEB"/>
<path d="M301.856 243.538H287.924V243.719H301.856V243.538Z" fill="#EBEBEB"/>
<path d="M69.4419 244.758H38.0859V244.939H69.4419V244.758Z" fill="#EBEBEB"/>
<path d="M80.506 244.758H75.9104V244.939H80.506V244.758Z" fill="#EBEBEB"/>
<path d="M163.459 247.821H95.4473V248.003H163.459V247.821Z" fill="#EBEBEB"/>
<path d="M172.062 206.214H31.8789C30.7807 206.212 29.7282 205.775 28.9523 204.997C28.1765 204.22 27.7407 203.167 27.7407 202.069V5.01053C27.7503 3.91864 28.1903 2.87462 28.9651 2.10523C29.7399 1.33585 30.787 0.903238 31.8789 0.901367H172.062C173.162 0.901367 174.216 1.33812 174.994 2.11554C175.771 2.89297 176.208 3.94738 176.208 5.04683V202.069C176.208 203.168 175.771 204.223 174.994 205C174.216 205.777 173.162 206.214 172.062 206.214ZM31.8789 1.04657C30.8289 1.04849 29.8225 1.46697 29.0807 2.21015C28.3389 2.95333 27.9222 3.96048 27.9222 5.01053V202.069C27.9222 203.119 28.3389 204.126 29.0807 204.869C29.8225 205.612 30.8289 206.031 31.8789 206.033H172.062C173.113 206.031 174.12 205.613 174.863 204.87C175.606 204.127 176.024 203.119 176.026 202.069V5.01053C176.024 3.95981 175.606 2.95268 174.863 2.2097C174.12 1.46673 173.113 1.04849 172.062 1.04657H31.8789Z" fill="#EBEBEB"/>
<path d="M329.103 206.214H188.912C187.813 206.212 186.76 205.775 185.983 204.998C185.206 204.221 184.769 203.168 184.767 202.069V5.01053C184.778 3.91798 185.22 2.87397 185.996 2.10478C186.772 1.33559 187.82 0.903217 188.912 0.901367H329.103C330.194 0.905146 331.239 1.3386 332.012 2.10778C332.785 2.87696 333.224 3.9199 333.234 5.01053V202.069C333.234 203.166 332.799 204.218 332.025 204.995C331.251 205.772 330.2 206.21 329.103 206.214ZM188.912 1.04657C187.861 1.04849 186.854 1.46673 186.111 2.2097C185.368 2.95268 184.95 3.95981 184.948 5.01053V202.069C184.95 203.119 185.368 204.127 186.111 204.87C186.854 205.613 187.861 206.031 188.912 206.033H329.103C330.154 206.031 331.161 205.613 331.904 204.87C332.647 204.127 333.065 203.119 333.067 202.069V5.01053C333.065 3.95981 332.647 2.95268 331.904 2.2097C331.161 1.46673 330.154 1.04849 329.103 1.04657H188.912Z" fill="#EBEBEB"/>
<path d="M306.438 53.5073H190.271V130.311H306.438V53.5073Z" fill="#E0E0E0"/>
<path d="M302.451 57.6675H194.248V126.158H302.451V57.6675Z" fill="#EBEBEB"/>
<path d="M221.836 62.3066H201.312V90.7804H221.836V62.3066Z" fill="#F5F5F5"/>
<path d="M248.35 64.9854H225.431V96.5373H248.35V64.9854Z" fill="#F5F5F5"/>
<path d="M273.397 62.3066H254.419V89.5897H273.397V62.3066Z" fill="#F5F5F5"/>
<path d="M294.879 64.332H278.174V94.9983H294.879V64.332Z" fill="#F5F5F5"/>
<path d="M294.88 100.908H258.369V123.305H294.88V100.908Z" fill="#F5F5F5"/>
<path d="M216.355 103.841H202.684V117.511H216.355V103.841Z" fill="#F5F5F5"/>
<path d="M235.238 106.869H221.401V120.706H235.238V106.869Z" fill="#F5F5F5"/>
<path d="M178.835 52.3823H87.4321V238.079H178.835V52.3823Z" fill="#E0E0E0"/>
<path d="M121.402 69.5884H103.593V87.3972H121.402V69.5884Z" fill="#F0F0F0"/>
<path d="M142.035 69.5884H124.226V87.3972H142.035V69.5884Z" fill="#F0F0F0"/>
<path d="M162.667 69.5884H144.859V87.3972H162.667V69.5884Z" fill="#F0F0F0"/>
<path d="M121.402 90.3013H103.593V108.11H121.402V90.3013Z" fill="#F0F0F0"/>
<path d="M142.035 90.3013H124.226V108.11H142.035V90.3013Z" fill="#F0F0F0"/>
<path d="M162.667 90.3013H144.859V108.11H162.667V90.3013Z" fill="#F0F0F0"/>
<path d="M171.547 137.447C171.547 138.126 171.345 138.79 170.968 139.355C170.591 139.92 170.054 140.36 169.427 140.62C168.799 140.88 168.109 140.948 167.443 140.815C166.777 140.683 166.165 140.356 165.684 139.875C165.204 139.395 164.877 138.783 164.745 138.117C164.612 137.451 164.68 136.761 164.94 136.133C165.2 135.506 165.64 134.969 166.205 134.592C166.77 134.215 167.434 134.013 168.113 134.013C168.564 134.012 169.011 134.1 169.428 134.273C169.845 134.445 170.224 134.698 170.543 135.017C170.862 135.336 171.115 135.715 171.287 136.132C171.459 136.549 171.548 136.996 171.547 137.447Z" fill="#F0F0F0"/>
<path d="M83.5918 52.4985H49.0706V68.7682H83.5918V52.4985Z" fill="#E0E0E0"/>
<path d="M83.5916 73.3345H55.6914V82.9249H83.5916V73.3345Z" fill="#E0E0E0"/>
<path d="M83.5918 52.4985H52.2939V68.7682H83.5918V52.4985Z" fill="#EBEBEB"/>
<path d="M83.5914 73.3345H58.2903V82.9249H83.5914V73.3345Z" fill="#EBEBEB"/>
<path d="M137.75 43.7086C143.359 41.3855 146.022 34.9557 143.699 29.3473C141.376 23.7389 134.946 21.0756 129.338 23.3987C123.729 25.7217 121.066 32.1515 123.389 37.7599C125.712 43.3684 132.142 46.0316 137.75 43.7086Z" fill="#F0F0F0"/>
<path d="M136.825 41.4752C141.2 39.6631 143.277 34.6475 141.465 30.2727C139.653 25.8978 134.637 23.8203 130.262 25.6324C125.888 27.4446 123.81 32.4601 125.622 36.835C127.434 41.2098 132.45 43.2873 136.825 41.4752Z" fill="#FAFAFA"/>
<path d="M130.796 36.2139L130.339 35.6476L133.185 33.3752V27.7705H133.911V33.7237L130.796 36.2139Z" fill="#F0F0F0"/>
<path d="M246.898 215.151C246.898 214.905 247.741 190.308 251.741 186.416C255.632 182.634 260.097 186.278 260.286 186.416L260.685 185.937C260.642 185.894 255.603 181.784 251.305 185.937C247.123 190.003 246.31 214.077 246.274 215.101L246.898 215.151Z" fill="#E0E0E0"/>
<path d="M246.557 219.987C246.557 219.689 249.294 190.46 238.615 178.205L238.143 178.619C248.641 190.663 245.962 219.631 245.933 219.921L246.557 219.987Z" fill="#E0E0E0"/>
<path d="M246.948 216.894L247.573 216.85C247.573 216.516 245.489 183.614 253.315 176.412L252.894 175.955C244.843 183.36 246.839 215.529 246.948 216.894Z" fill="#E0E0E0"/>
<path d="M245.932 216.872H246.557C246.557 215.964 246.303 194.642 240.248 191.171C239.672 190.799 239.016 190.571 238.334 190.505C237.651 190.44 236.963 190.539 236.327 190.794C232.697 192.304 230.853 198.823 230.774 199.099L231.376 199.266C231.376 199.201 233.191 192.732 236.567 191.375C237.115 191.158 237.707 191.077 238.293 191.136C238.879 191.195 239.442 191.394 239.936 191.716C245.678 195.012 245.932 216.654 245.932 216.872Z" fill="#E0E0E0"/>
<path d="M248.292 216.887L248.917 216.851C248.917 216.684 248.002 200.007 252.503 194.134C253.592 192.682 254.775 192.029 256.031 192.116C258.979 192.326 261.447 196.639 261.476 196.682L262.021 196.377C261.912 196.181 259.356 191.724 256.075 191.491C254.623 191.39 253.236 192.152 252.009 193.749C247.363 199.826 248.249 216.197 248.292 216.887Z" fill="#E0E0E0"/>
<path d="M247.305 219.158C247.428 217.539 250.245 179.461 245.287 172.745L244.778 173.123C249.606 179.657 246.709 218.715 246.68 219.107L247.305 219.158Z" fill="#E0E0E0"/>
<path d="M234.977 194.649C234.977 194.649 237.954 195.752 237.068 198.337C236.182 200.921 226.773 205.19 226.773 205.19C226.773 205.19 222.831 201.56 226.454 195.701C230.077 189.843 234.897 192.797 234.977 194.649Z" fill="#EBEBEB"/>
<path d="M247.914 189.719C247.914 189.719 244.749 189.589 244.567 192.319C244.386 195.048 251.435 202.606 251.435 202.606C251.435 202.606 256.459 200.791 255.385 193.974C254.31 187.157 248.705 188.042 247.914 189.719Z" fill="#EBEBEB"/>
<path d="M250.601 176.644C250.601 176.644 248.488 176.419 248.655 175.134C248.822 173.849 256.873 170.531 261.621 175.86C261.621 175.86 258.579 181.08 254.187 181.145C249.795 181.211 250.601 176.644 250.601 176.644Z" fill="#EBEBEB"/>
<path d="M246.665 173.522C246.665 173.522 248.575 174.444 249.112 173.261C249.649 172.078 244.574 165.014 237.714 167.054C237.714 167.054 237.532 173.087 241.22 175.468C244.908 177.849 246.665 173.522 246.665 173.522Z" fill="#EBEBEB"/>
<path d="M256.67 193.611C256.67 193.611 255.218 192.435 256.786 191.862C258.354 191.288 266.079 191.448 266.159 199.122C266.159 199.122 257.163 200.617 256.053 197.67C254.942 194.722 256.67 193.611 256.67 193.611Z" fill="#EBEBEB"/>
<path d="M238.324 176.456C238.324 176.456 239.776 175.279 238.208 174.699C236.639 174.118 228.915 174.292 228.835 181.959C228.835 181.959 237.83 183.454 238.941 180.543C240.052 177.632 238.324 176.456 238.324 176.456Z" fill="#EBEBEB"/>
<path d="M243.08 182.619C243.08 182.619 243.21 181.167 242.056 181.748C240.902 182.329 236.872 186.649 241.047 190.772C241.047 190.772 246.666 186.612 245.65 184.442C244.633 182.271 243.08 182.619 243.08 182.619Z" fill="#EBEBEB"/>
<path d="M257.97 184.652C257.97 184.652 257.098 183.512 258.376 183.374C259.654 183.236 265.375 184.761 264.039 190.467C264.039 190.467 257.069 189.944 256.779 187.563C256.489 185.182 257.97 184.652 257.97 184.652Z" fill="#EBEBEB"/>
<path d="M234.418 238.078H258.34L260.917 211.892H231.841L234.418 238.078Z" fill="#F0F0F0"/>
<path d="M230.563 214.781H262.195V209.002H230.563V214.781Z" fill="#E6E6E6"/>
<path d="M181.5 271.38C259.242 271.38 322.264 267.701 322.264 263.162C322.264 258.623 259.242 254.943 181.5 254.943C103.758 254.943 40.7361 258.623 40.7361 263.162C40.7361 267.701 103.758 271.38 181.5 271.38Z" fill="#F5F5F5"/>
<path d="M181.007 32.6788H160.156C158.452 32.6788 156.818 33.3557 155.613 34.5606C154.408 35.7656 153.731 37.3998 153.731 39.1039V57.2539C153.731 58.9579 154.408 60.5922 155.613 61.7971C156.818 63.002 158.452 63.679 160.156 63.679H168.432L172.062 69.4071L172.788 63.679H181.043C181.886 63.679 182.721 63.5127 183.501 63.1897C184.28 62.8668 184.987 62.3934 185.584 61.7967C186.18 61.1999 186.652 60.4916 186.974 59.7121C187.296 58.9326 187.462 58.0973 187.461 57.2539V39.1039C187.461 38.2577 187.294 37.4198 186.969 36.6384C186.644 35.8569 186.168 35.1474 185.569 34.5504C184.969 33.9533 184.257 33.4807 183.474 33.1595C182.691 32.8383 181.853 32.675 181.007 32.6788Z" fill="#407BFF"/>
<path opacity="0.7" d="M181.007 32.6788H160.156C158.452 32.6788 156.818 33.3557 155.613 34.5606C154.408 35.7656 153.731 37.3998 153.731 39.1039V57.2539C153.731 58.9579 154.408 60.5922 155.613 61.7971C156.818 63.002 158.452 63.679 160.156 63.679H168.432L172.062 69.4071L172.788 63.679H181.043C181.886 63.679 182.721 63.5127 183.501 63.1897C184.28 62.8668 184.987 62.3934 185.584 61.7967C186.18 61.1999 186.652 60.4916 186.974 59.7121C187.296 58.9326 187.462 58.0973 187.461 57.2539V39.1039C187.461 38.2577 187.294 37.4198 186.969 36.6384C186.644 35.8569 186.168 35.1474 185.569 34.5504C184.969 33.9533 184.257 33.4807 183.474 33.1595C182.691 32.8383 181.853 32.675 181.007 32.6788Z" fill="white"/>
<path d="M177.903 55.4187C181.946 51.3756 181.946 44.8206 177.903 40.7776C173.86 36.7346 167.305 36.7346 163.262 40.7776C159.219 44.8206 159.219 51.3757 163.262 55.4187C167.305 59.4617 173.86 59.4617 177.903 55.4187Z" fill="#407BFF"/>
<path d="M169.492 52.7238C169.354 52.7251 169.217 52.6958 169.092 52.6381C168.966 52.5804 168.855 52.4956 168.766 52.3898L164.701 47.6055C164.537 47.4129 164.456 47.1632 164.477 46.9114C164.497 46.6595 164.617 46.426 164.809 46.2624C165.002 46.0987 165.252 46.0182 165.504 46.0387C165.755 46.0591 165.989 46.1787 166.153 46.3713L169.485 50.3062L174.995 43.8157C175.161 43.6331 175.391 43.5219 175.637 43.5055C175.883 43.4892 176.125 43.5689 176.314 43.728C176.502 43.8871 176.621 44.1131 176.646 44.3584C176.671 44.6036 176.6 44.849 176.447 45.0427L170.211 52.3898C170.122 52.4939 170.012 52.5776 169.888 52.6352C169.764 52.6929 169.629 52.7231 169.492 52.7238Z" fill="white"/>
<path d="M299.061 131.466L297.675 131.401C297.675 131.401 295.308 148.527 293.74 149.87C292.172 151.213 269.165 146.763 267.822 145.79C267.776 145.75 267.743 145.696 267.727 145.637C266.718 143.118 270.711 114.703 272.178 113.381C273.644 112.06 278.124 113.381 278.124 113.381C278.124 113.381 287.816 115.654 293.37 117.164C294.634 117.463 295.874 117.856 297.079 118.34C298.531 119.196 299.061 131.466 299.061 131.466Z" fill="#263238"/>
<path opacity="0.2" d="M293.907 130.174C293.907 130.174 291.533 147.3 289.972 148.643C288.752 149.688 274.624 147.242 267.727 145.637C266.718 143.118 270.711 114.703 272.178 113.381C273.644 112.06 278.124 113.381 278.124 113.381C278.124 113.381 287.816 115.654 293.37 117.164C294.756 118.318 293.907 130.174 293.907 130.174Z" fill="white"/>
<path d="M253.555 85.2777L252.372 80.457L257.759 81.5751C257.759 81.5751 258.558 85.9311 256.307 86.2578L253.555 85.2777Z" fill="#EEC1BB"/>
<path d="M253.853 75.7739L258.158 78.3077L257.759 81.5747L252.372 80.4566L253.853 75.7739Z" fill="#EEC1BB"/>
<path d="M272.519 113.875C271.677 114.284 270.811 114.642 269.927 114.949C269.288 114.709 268.664 114.463 268.046 114.223C267.734 114.092 267.415 113.969 267.11 113.831C265.977 113.366 264.867 112.865 263.763 112.335L262.449 111.697C262.086 111.508 261.723 111.326 261.353 111.13C260.525 110.68 259.697 110.237 258.877 109.751C258.311 109.424 257.745 109.076 257.185 108.713C256.626 108.35 256.038 107.936 255.458 107.5L255.116 107.246C254.373 106.692 253.678 106.075 253.04 105.402C252.654 105.009 252.301 104.584 251.987 104.132C251.795 103.863 251.62 103.581 251.465 103.289C251.421 103.202 251.37 103.108 251.327 103.006C251.218 102.759 251.116 102.505 251.051 102.28C250.736 101.274 250.572 100.227 250.564 99.173C250.547 97.7465 250.649 96.321 250.869 94.9114C250.869 94.6646 250.942 94.4105 250.978 94.1854C251.28 92.4257 251.675 90.6833 252.162 88.9655C252.525 87.678 252.938 86.3954 253.403 85.1177L256.975 85.9018C256.917 87.0779 256.844 88.254 256.801 89.4301C256.721 91.2016 256.663 92.9585 256.663 94.6718V95.3978C256.663 96.407 256.728 97.3943 256.837 98.3018C256.837 98.4253 256.873 98.5559 256.888 98.6793C256.949 99.1285 257.069 99.5678 257.244 99.9862C257.28 100.059 257.244 99.9861 257.287 100.03C257.331 100.073 257.287 100.066 257.389 100.131C257.49 100.197 257.636 100.385 257.824 100.545C258.788 101.327 259.821 102.02 260.91 102.614H260.975C262.144 103.268 263.378 103.914 264.656 104.516L264.925 104.64C266.711 105.496 268.555 106.331 270.435 107.115C271.161 107.42 271.887 107.725 272.562 108.008C272.562 108.008 274.922 108.655 275.757 110.281C276.432 111.646 274.37 112.982 272.519 113.875Z" fill="#407BFF"/>
<path opacity="0.2" d="M272.518 113.874C271.676 114.284 270.811 114.642 269.926 114.949C269.288 114.709 268.663 114.463 268.046 114.223C267.734 114.092 267.414 113.969 267.11 113.831C265.977 113.366 264.866 112.865 263.763 112.335C267.741 110.455 270.856 112.357 272.518 113.874Z" fill="black"/>
<path d="M246.666 254.37L242.084 252.708L244.604 241.665L249.192 243.328L246.666 254.37Z" fill="#EEC1BB"/>
<path d="M282.82 260.461H277.956L276.569 249.194H281.434L282.82 260.461Z" fill="#EEC1BB"/>
<path d="M277.332 259.895H283.263C283.36 259.895 283.453 259.929 283.528 259.99C283.603 260.05 283.656 260.134 283.677 260.229L284.686 264.585C284.707 264.691 284.703 264.8 284.676 264.905C284.649 265.01 284.599 265.107 284.529 265.19C284.46 265.272 284.372 265.339 284.274 265.383C284.175 265.428 284.068 265.45 283.96 265.448C282.051 265.412 280.657 265.303 278.254 265.303C276.802 265.303 272.315 265.456 270.268 265.456C268.22 265.456 267.945 263.437 268.816 263.278C272.555 262.457 275.35 261.325 276.555 260.243C276.764 260.037 277.039 259.914 277.332 259.895Z" fill="#263238"/>
<path d="M241.918 251.778L247.123 252.889C247.217 252.911 247.302 252.964 247.363 253.038C247.425 253.113 247.46 253.206 247.464 253.303L247.537 257.731C247.539 257.839 247.516 257.945 247.472 258.043C247.428 258.141 247.362 258.228 247.28 258.297C247.198 258.367 247.102 258.417 246.998 258.445C246.894 258.472 246.786 258.477 246.68 258.457C244.807 258.022 242.114 257.325 239.754 256.824C236.995 256.229 235.282 255.67 232.044 254.98C230.084 254.559 229.946 252.468 230.803 252.461C234.701 252.461 237.061 253.187 240.691 251.923C241.077 251.758 241.503 251.707 241.918 251.778Z" fill="#263238"/>
<path opacity="0.2" d="M244.604 241.665L243.304 247.357L247.893 249.027L249.192 243.335L244.604 241.665Z" fill="black"/>
<path opacity="0.2" d="M281.441 249.194H276.569L277.288 255.002H282.152L281.441 249.194Z" fill="black"/>
<path d="M241.961 245.68L249.744 248.468C249.744 248.468 255.806 221.773 259.03 206.97C260.447 201.121 262.194 195.357 264.264 189.706C267.212 181.4 270.726 172.456 273.564 165.465C276.563 158.103 278.791 152.905 278.791 152.905L262.006 149.507C262.006 149.507 249.207 186.352 246.325 200.915C243.363 216.06 241.961 245.68 241.961 245.68Z" fill="#263238"/>
<g opacity="0.3">
<path d="M241.961 245.681L249.744 248.469C249.744 248.469 255.806 221.774 259.03 206.971C260.447 201.122 262.194 195.358 264.264 189.706C267.212 181.401 270.726 172.457 273.564 165.465C276.563 158.104 278.791 152.905 278.791 152.905L262.006 149.508C262.006 149.508 249.207 186.352 246.325 200.916C243.363 216.06 241.961 245.681 241.961 245.681Z" fill="white"/>
</g>
<path opacity="0.2" d="M264.264 189.706C267.212 181.4 270.726 172.456 273.564 165.464L272.265 161.45C267.495 165.893 264.497 181.204 264.264 189.706Z" fill="black"/>
<path d="M271.088 151.343C271.088 151.343 268.097 193.35 267.915 207.63C267.712 223.261 275.023 253.876 275.023 253.876H283.938C283.938 253.876 280.373 226.252 281.564 210.766C282.885 193.444 287.561 154.676 287.561 154.676L271.088 151.343Z" fill="#263238"/>
<g opacity="0.3">
<path d="M271.088 151.344C271.088 151.344 268.097 193.35 267.915 207.631C267.712 223.261 275.023 253.877 275.023 253.877H283.938C283.938 253.877 280.373 226.252 281.564 210.767C282.885 193.444 287.561 154.676 287.561 154.676L271.088 151.344Z" fill="white"/>
</g>
<path d="M273.964 254.073H284.454L284.425 250.937L273.47 250.305L273.964 254.073Z" fill="#263238"/>
<path d="M240.923 245.578L250.216 248.802L251.232 245.803L241.068 242.101L240.923 245.578Z" fill="#263238"/>
<path d="M275.713 260.744C275.382 260.772 275.051 260.684 274.776 260.497C274.69 260.422 274.623 260.328 274.58 260.222C274.537 260.116 274.52 260.001 274.53 259.888C274.528 259.82 274.546 259.754 274.58 259.696C274.615 259.638 274.665 259.591 274.726 259.561C275.256 259.285 276.838 260.287 277.02 260.359C277.038 260.372 277.052 260.39 277.061 260.411C277.07 260.431 277.073 260.453 277.071 260.476C277.068 260.499 277.058 260.52 277.042 260.537C277.027 260.554 277.006 260.566 276.984 260.57C276.568 260.675 276.142 260.733 275.713 260.744ZM274.987 259.742C274.939 259.73 274.889 259.73 274.842 259.742C274.806 259.742 274.769 259.786 274.769 259.873C274.759 259.951 274.769 260.03 274.797 260.104C274.824 260.177 274.87 260.242 274.929 260.294C275.473 260.543 276.091 260.574 276.657 260.381C276.145 260.061 275.575 259.844 274.98 259.742H274.987Z" fill="#407BFF"/>
<path d="M276.962 260.578H276.904C276.395 260.302 275.415 259.235 275.51 258.697C275.526 258.613 275.571 258.536 275.637 258.481C275.703 258.425 275.786 258.394 275.873 258.392C275.96 258.381 276.05 258.389 276.135 258.414C276.22 258.439 276.298 258.481 276.366 258.538C276.933 259.002 277.092 260.403 277.092 260.469C277.095 260.489 277.092 260.509 277.082 260.527C277.073 260.545 277.059 260.56 277.042 260.57C277.03 260.579 277.017 260.583 277.003 260.585C276.989 260.586 276.974 260.584 276.962 260.578ZM275.96 258.632H275.88C275.735 258.632 275.72 258.719 275.713 258.748C275.655 259.075 276.286 259.881 276.787 260.258C276.748 259.703 276.543 259.172 276.199 258.734C276.133 258.674 276.049 258.639 275.96 258.632Z" fill="#407BFF"/>
<path d="M241.308 252.33C240.509 252.33 239.13 252.213 238.68 251.64C238.615 251.557 238.572 251.459 238.554 251.355C238.536 251.251 238.544 251.144 238.578 251.044C238.593 250.984 238.623 250.928 238.667 250.884C238.71 250.839 238.765 250.807 238.825 250.79C239.471 250.587 241.191 251.967 241.38 252.126C241.4 252.141 241.415 252.162 241.421 252.185C241.428 252.209 241.426 252.234 241.417 252.257C241.41 252.28 241.395 252.3 241.375 252.313C241.355 252.326 241.331 252.332 241.308 252.33ZM238.926 251.001H238.854C238.83 251.006 238.808 251.019 238.791 251.037C238.774 251.055 238.763 251.078 238.759 251.103C238.735 251.168 238.728 251.238 238.738 251.306C238.749 251.374 238.776 251.439 238.817 251.495C239.057 251.821 239.834 252.032 240.923 252.083C240.306 251.567 239.311 250.95 238.926 251.001Z" fill="#407BFF"/>
<path d="M241.308 252.33C241.296 252.337 241.282 252.341 241.268 252.341C241.254 252.341 241.24 252.337 241.228 252.33C240.705 251.953 239.776 250.675 239.972 250.152C240.023 250.029 240.146 249.891 240.458 249.927C240.573 249.94 240.684 249.975 240.785 250.031C240.886 250.087 240.975 250.163 241.046 250.254C241.372 250.863 241.499 251.559 241.409 252.243C241.409 252.264 241.403 252.284 241.391 252.301C241.38 252.317 241.363 252.33 241.344 252.338L241.308 252.33ZM240.313 250.152C240.287 250.153 240.262 250.161 240.241 250.176C240.219 250.19 240.201 250.209 240.19 250.232C240.074 250.544 240.683 251.524 241.199 251.996C241.255 251.442 241.139 250.884 240.865 250.399C240.815 250.331 240.751 250.274 240.677 250.233C240.603 250.191 240.521 250.166 240.437 250.16L240.313 250.152Z" fill="#407BFF"/>
<path d="M297.036 113.468C296.29 115.273 295.605 117.091 294.981 118.92C294.814 119.407 294.654 119.886 294.495 120.372C294.001 121.89 293.544 123.407 293.123 124.91C292.977 125.44 292.832 125.97 292.694 126.493C292.469 127.32 292.259 128.141 292.055 128.954C291.946 129.411 291.838 129.861 291.736 130.304C291.482 131.379 291.249 132.431 291.01 133.469C290.77 134.508 290.603 135.444 290.422 136.373C290.24 137.303 290.03 138.399 289.863 139.372C289.696 140.345 289.536 141.281 289.391 142.196C289.246 143.111 289.079 144.185 288.948 145.1C288.781 146.269 288.629 147.365 288.498 148.367C288.077 151.38 287.772 153.594 287.547 154.647L262.028 149.478C262.028 147.474 262.028 145.55 262.115 143.67C262.166 142.428 262.224 141.216 262.311 140.04C262.355 139.263 262.413 138.501 262.478 137.753C262.58 136.613 262.689 135.509 262.812 134.435C262.95 133.23 263.102 132.068 263.277 130.95C263.582 128.881 263.937 126.964 264.315 125.186C264.779 123.008 265.273 121.084 265.767 119.341C266.398 117.163 267.045 115.29 267.64 113.759C268.345 111.843 269.214 109.992 270.239 108.226C272.322 108.112 274.409 108.127 276.49 108.27C276.925 108.27 277.376 108.35 277.826 108.393C281.495 108.91 285.131 109.637 288.716 110.571C289.391 110.746 290.081 110.942 290.749 111.138C294.11 112.227 297.036 113.468 297.036 113.468Z" fill="#407BFF"/>
<path d="M289.979 98.1855C288.621 101.54 286.705 107.798 288.701 110.622C287.406 111.529 285.931 112.145 284.376 112.428C282.821 112.711 281.223 112.655 279.691 112.263C276.7 111.588 276.954 109.453 277.847 108.429C281.92 108.284 282.378 105.373 282.203 102.527L289.979 98.1855Z" fill="#EEC1BB"/>
<path opacity="0.2" d="M286.814 99.9863L282.225 102.542C282.268 103.207 282.256 103.875 282.189 104.538C283.714 104.625 286.073 103.406 286.545 101.881C286.75 101.271 286.841 100.629 286.814 99.9863Z" fill="black"/>
<path d="M281.121 86.0685C279.793 87.5205 278.464 91.1505 281.361 91.1142C284.258 91.0779 283.401 83.5783 281.121 86.0685Z" fill="#263238"/>
<path d="M292.28 94.0615C290.509 98.5482 289.696 101.263 286.625 102.839C282 105.206 277.042 101.205 277.441 96.3049C277.797 91.8545 280.643 85.2697 285.71 84.9575C286.828 84.8911 287.944 85.1081 288.956 85.5883C289.967 86.0684 290.841 86.7963 291.497 87.7042C292.152 88.6122 292.567 89.671 292.704 90.7823C292.841 91.8937 292.696 93.0216 292.28 94.0615Z" fill="#EEC1BB"/>
<path d="M292.977 85.4297H289.674L291.256 88.4135C291.793 88.4934 290.726 90.3157 291.191 90.3229C291.191 90.3229 289.013 94.2869 290.371 96.9658C295.249 96.5738 298.698 92.7405 296.483 89.9745C297.899 87.5496 295.423 85.7491 292.977 85.4297Z" fill="#263238"/>
<path d="M292.803 98.4549C292.453 98.9415 292.01 99.3534 291.498 99.6663C290.987 99.9792 290.419 100.187 289.826 100.277C288.244 100.509 287.648 99.0357 288.236 97.6345C288.781 96.3713 290.255 94.7305 291.772 95.1444C292.102 95.2396 292.404 95.4153 292.649 95.6558C292.895 95.8962 293.077 96.1939 293.179 96.522C293.281 96.8502 293.3 97.1985 293.235 97.5359C293.169 97.8732 293.021 98.189 292.803 98.4549Z" fill="#EEC1BB"/>
<path d="M282 92.2261C281.183 93.1756 280.237 94.0064 279.19 94.6945C279.39 94.9522 279.643 95.165 279.93 95.3188C280.218 95.4727 280.535 95.5642 280.86 95.5875L282 92.2261Z" fill="#D4827D"/>
<path d="M286.676 92.0881C286.634 92.0799 286.595 92.0608 286.563 92.0328C286.531 92.0047 286.508 91.9687 286.494 91.9283C286.408 91.6517 286.258 91.3992 286.056 91.1911C285.854 90.983 285.606 90.8253 285.333 90.7304C285.303 90.7228 285.275 90.7094 285.251 90.6911C285.226 90.6727 285.206 90.6498 285.19 90.6235C285.175 90.5972 285.165 90.5681 285.16 90.5379C285.156 90.5076 285.158 90.4769 285.166 90.4473C285.173 90.4177 285.187 90.39 285.205 90.3656C285.223 90.3412 285.246 90.3207 285.273 90.3052C285.299 90.2897 285.328 90.2795 285.358 90.2752C285.388 90.271 285.419 90.2727 285.449 90.2803C285.792 90.3995 286.102 90.5976 286.354 90.8587C286.606 91.1197 286.793 91.4364 286.901 91.7831C286.922 91.8409 286.919 91.9047 286.893 91.9605C286.867 92.0163 286.82 92.0595 286.763 92.0808C286.734 92.0871 286.705 92.0896 286.676 92.0881Z" fill="#263238"/>
<path d="M279.387 89.5316C279.341 89.5247 279.3 89.5014 279.271 89.4663C279.227 89.4228 279.203 89.3641 279.203 89.3029C279.203 89.2417 279.227 89.183 279.271 89.1396C279.516 88.8694 279.823 88.6624 280.165 88.536C280.508 88.4096 280.876 88.3676 281.238 88.4136C281.299 88.4259 281.353 88.4616 281.388 88.5131C281.424 88.5647 281.437 88.6279 281.427 88.6894C281.414 88.7487 281.379 88.8009 281.329 88.8348C281.279 88.8687 281.218 88.8817 281.158 88.8709C280.871 88.8309 280.578 88.8622 280.306 88.9623C280.034 89.0623 279.79 89.2279 279.597 89.4445C279.574 89.477 279.541 89.5024 279.504 89.5178C279.467 89.5331 279.426 89.5379 279.387 89.5316Z" fill="#263238"/>
<path d="M280.33 96.4722C280.67 97.2397 280.954 98.0306 281.18 98.839L281.615 98.7882C283.604 98.5413 284.447 97.7718 284.781 96.995C284.936 96.6108 284.996 96.1948 284.955 95.7825C284.939 95.5493 284.89 95.3194 284.81 95.1001C283.837 95.8261 282 96.2254 281.005 96.3851C280.592 96.4505 280.33 96.4722 280.33 96.4722Z" fill="#263238"/>
<path d="M281.005 96.3851L281.274 97.0748C283.147 96.8425 284.432 96.4214 284.954 95.7825C284.939 95.5493 284.89 95.3194 284.809 95.1001C283.865 95.8551 282 96.2254 281.005 96.3851Z" fill="white"/>
<path d="M281.615 98.7878C283.604 98.541 284.447 97.7714 284.78 96.9946C284.017 97.1048 283.279 97.3507 282.602 97.7206C282.172 97.9666 281.827 98.3392 281.615 98.7878Z" fill="#DE5753"/>
<path d="M295.591 86.4099C295.591 86.4099 292.745 82.0103 286.051 81.7344C279.357 81.4585 279.154 85.9162 281.419 87.4481L281.615 86.7946C282.157 87.4503 282.84 87.9762 283.612 88.3338V87.4481C284.557 88.3209 285.645 89.0256 286.828 89.5317V88.4136C286.828 88.4136 288.57 89.8656 292.193 90.2722C295.816 90.6787 297.246 89.205 295.591 86.4099Z" fill="#263238"/>
<path d="M284.962 93.2637C284.926 93.2643 284.89 93.2534 284.86 93.2325C284.83 93.2117 284.807 93.182 284.795 93.1476C284.77 93.0444 284.722 92.9481 284.656 92.8653C284.589 92.7825 284.506 92.7153 284.41 92.6684C284.289 92.6184 284.154 92.6184 284.033 92.6684C283.991 92.6904 283.942 92.6959 283.897 92.6838C283.851 92.6717 283.811 92.6429 283.786 92.6031C283.77 92.5622 283.769 92.5169 283.784 92.4755C283.798 92.4342 283.828 92.3995 283.866 92.378C283.967 92.3187 284.08 92.2821 284.196 92.2708C284.313 92.2596 284.43 92.2738 284.541 92.3127C284.692 92.3785 284.825 92.4783 284.931 92.6042C285.037 92.7302 285.112 92.8788 285.151 93.0387C285.165 93.084 285.162 93.1331 285.142 93.1762C285.122 93.2193 285.086 93.2531 285.042 93.271L284.962 93.2637Z" fill="#263238"/>
<path d="M280.838 92.182C280.802 92.1816 280.767 92.1703 280.737 92.1496C280.707 92.1289 280.684 92.0997 280.671 92.0659C280.646 91.9627 280.599 91.8664 280.532 91.7836C280.466 91.7008 280.382 91.6336 280.287 91.5867C280.163 91.5509 280.031 91.5639 279.916 91.623C279.874 91.6472 279.824 91.6539 279.776 91.6417C279.729 91.6295 279.688 91.5994 279.662 91.5577C279.642 91.5155 279.637 91.4675 279.649 91.4222C279.661 91.3769 279.689 91.3374 279.728 91.3109C279.829 91.2533 279.942 91.2178 280.058 91.2065C280.175 91.1953 280.292 91.2086 280.403 91.2455C280.554 91.3114 280.687 91.4111 280.793 91.5371C280.899 91.663 280.974 91.8117 281.013 91.9715C281.027 92.0168 281.024 92.0659 281.004 92.109C280.984 92.1521 280.948 92.186 280.904 92.2038L280.838 92.182Z" fill="#263238"/>
<path d="M292.759 111.552C292.759 111.552 287.968 126.283 291.554 139.866L290.632 140.723C290.632 140.723 284.686 126.275 289.688 110.92L292.759 111.552Z" fill="#263238"/>
<path d="M275.88 108.212C275.88 108.212 264.772 122.405 262.696 135.604L262.899 132.54C262.899 132.54 262.826 120.765 272.555 108.06L275.88 108.212Z" fill="#263238"/>
<path d="M291.22 138.486L293.101 141.731L291.852 145.964C290.957 143.768 290.345 141.467 290.03 139.117L291.22 138.486Z" fill="#263238"/>
<path d="M298.662 151.235L286.588 146.153L285.811 156.317C285.811 156.317 299.417 156.571 299.605 156.651C299.794 156.731 298.662 151.235 298.662 151.235Z" fill="#263238"/>
<path opacity="0.4" d="M298.662 151.235L286.588 146.153L285.811 156.317C285.811 156.317 299.417 156.571 299.605 156.651C299.794 156.731 298.662 151.235 298.662 151.235Z" fill="white"/>
<path d="M286.574 155.722L287.372 147.003L289.42 143.729L297.493 150.742L296.092 155.555L286.574 155.722Z" fill="#263238"/>
<path opacity="0.7" d="M286.574 155.722L287.372 147.003L289.42 143.729L297.493 150.742L296.092 155.555L286.574 155.722Z" fill="white"/>
<path d="M288.687 142.777L288.541 153.987L285.812 156.361L301.849 163.055L304.622 160.187L304.738 150.074L288.687 142.777Z" fill="#263238"/>
<path opacity="0.5" d="M288.687 142.777L288.541 153.987L285.812 156.361L301.849 163.055L304.622 160.187L304.738 150.074L288.687 142.777Z" fill="white"/>
<path d="M298.77 153.892L298.335 158.828L293.601 156.026C293.601 156.026 294.262 151.67 296.505 152.077L298.77 153.892Z" fill="#EEC1BB"/>
<path d="M295.417 162.786L292.164 158.989L293.602 156.027L298.335 158.829L295.417 162.786Z" fill="#EEC1BB"/>
<path opacity="0.2" d="M294.495 120.372C294.001 121.889 293.544 123.407 293.123 124.91C292.978 125.44 292.832 125.97 292.694 126.492C291.678 124.387 292.164 120.837 292.164 120.837L294.495 120.372Z" fill="black"/>
<path d="M300.055 115.675C301.509 117.136 302.835 118.717 304.019 120.402C305.801 122.892 307.389 125.516 308.767 128.25C309.717 130.084 310.504 131.999 311.12 133.971C311.356 134.717 311.498 135.49 311.541 136.272C311.592 137.913 310.089 140.708 308.092 143.626C306.967 145.289 305.689 146.995 304.462 148.556C301.769 151.975 299.38 154.691 299.38 154.691L295.75 152.15C295.75 152.15 297.544 148.883 299.38 145.354C300.36 143.489 301.348 141.543 302.074 139.975C302.586 139.023 302.976 138.011 303.235 136.962C303.245 136.641 303.221 136.319 303.163 136.003C302.887 134.472 298.393 124.932 292.222 120.837L294.4 112.851C295.917 112.423 297.95 113.606 300.055 115.675Z" fill="#407BFF"/>
<path d="M226.345 134.101C229.3 136.032 223.514 144.265 216.813 143.111C210.112 141.956 210.91 136.613 212.123 134.638C213.335 132.664 219.506 129.629 226.345 134.101Z" fill="#407BFF"/>
<path opacity="0.3" d="M226.345 134.101C229.3 136.032 223.514 144.265 216.813 143.111C210.112 141.956 210.91 136.613 212.123 134.638C213.335 132.664 219.506 129.629 226.345 134.101Z" fill="black"/>
<path d="M217.488 132.171C217.488 132.171 225.43 138.023 226.294 143.112C227.158 148.201 217.248 152.194 210.068 151.345C202.888 150.496 196.564 137.82 196.564 137.82C196.564 137.82 210.54 138.117 217.488 132.171Z" fill="#407BFF"/>
<path opacity="0.2" d="M217.488 132.171C217.488 132.171 225.43 138.023 226.294 143.112C227.158 148.201 217.248 152.194 210.068 151.345C202.888 150.496 196.564 137.82 196.564 137.82C196.564 137.82 210.54 138.117 217.488 132.171Z" fill="black"/>
<path d="M216.348 135.553C216.348 135.553 215.883 128.481 226.36 134.101C226.36 134.101 221.554 130.834 217.038 131.444C212.522 132.053 207.818 136.867 202.852 136.395C197.886 135.923 200.485 141.811 200.485 141.811C200.485 141.811 211.549 140.961 216.348 135.553Z" fill="#407BFF"/>
<path d="M195.098 101.975C197.443 96.7585 199.423 91.3853 201.022 85.8941C201.494 83.9339 201.225 81.8648 201.022 79.7667C200.71 77.1313 200.231 74.3652 199.737 71.6718L203.12 70.4448C205.272 74.4142 206.745 78.7159 207.476 83.1716C207.721 84.8955 207.65 86.6496 207.266 88.348C206.124 94.1479 204.248 99.7787 201.683 105.104L195.149 101.975H195.098Z" fill="#FFB573"/>
<path d="M192.39 102.411C195.621 100.153 198.358 94.1489 198.358 94.1489L205.001 98.2218C205.001 98.2218 201.93 105.141 201.262 109.627C200.884 112.35 192.39 102.411 192.39 102.411Z" fill="#263238"/>
<path opacity="0.2" d="M197.98 108.248C199.671 109.772 201.131 110.716 201.298 109.62C201.427 108.775 201.607 107.939 201.835 107.115C200.859 106.047 199.698 105.164 198.408 104.509C198.071 105.725 197.927 106.987 197.98 108.248Z" fill="black"/>
<path d="M189.196 239.691L193.973 239.959L196.536 229.011L191.766 228.742L189.196 239.691Z" fill="#FFB573"/>
<path d="M194.031 238.87L190.081 235.24C190.012 235.18 189.923 235.147 189.831 235.147C189.739 235.147 189.65 235.18 189.58 235.24L186.248 237.955C186.168 238.026 186.103 238.114 186.059 238.212C186.015 238.311 185.992 238.417 185.992 238.525C185.992 238.632 186.015 238.739 186.059 238.837C186.103 238.935 186.168 239.023 186.248 239.095C187.642 240.343 188.383 240.873 190.118 242.478C191.192 243.458 194.154 246.398 195.635 247.763C197.116 249.128 198.539 247.763 198.038 247.037C195.86 243.901 194.641 241.294 194.408 239.661C194.382 239.36 194.248 239.08 194.031 238.87Z" fill="#263238"/>
<g opacity="0.2">
<path d="M196.536 229.012L195.214 234.66L190.437 234.391L191.758 228.75L196.536 229.012Z" fill="black"/>
</g>
<path d="M196.746 102.869C196.746 102.869 203.447 111.226 203.781 131.866C196.303 133.739 188.535 134.218 184.905 135.133C183.3 127.386 182.175 122.638 174.567 107.821C177.041 106.62 179.602 105.603 182.226 104.779C185.021 103.85 187.879 103.122 190.778 102.601C192.761 102.222 194.805 102.314 196.746 102.869Z" fill="#FFB573"/>
<path d="M180.679 94.9404C181.906 97.554 183.714 102.462 182.248 104.778C182.248 104.778 183.7 107.384 188.782 106.099C194.408 104.691 190.771 102.636 190.771 102.636C187.518 102.672 187.025 100.378 187.025 98.1058L180.679 94.9404Z" fill="#FFB573"/>
<path d="M182.226 104.785C185.02 103.853 187.879 103.125 190.778 102.607L191.352 102.527C192.361 103.645 193.029 105.591 192.129 108.923C192.129 108.923 183.867 107.783 181.115 105.111C181.5 105.017 181.878 104.894 182.226 104.785Z" fill="#FFB573"/>
<path opacity="0.2" d="M183.279 96.2329L187.054 98.0987C187.041 98.6312 187.08 99.1638 187.17 99.6887C185.95 99.8121 184.019 98.9627 183.584 97.7285C183.394 97.252 183.291 96.7456 183.279 96.2329Z" fill="black"/>
<path d="M203.817 132.367C203.817 132.367 207.077 169.248 206.561 183.826C206.024 198.985 196.114 233.448 196.114 233.448L189.645 233.354C189.645 233.354 195.011 199.718 194.648 184.821C194.248 168.573 189.566 132.171 189.566 132.171L203.817 132.367Z" fill="#407BFF"/>
<path opacity="0.2" d="M203.817 132.367C203.817 132.367 207.077 169.248 206.561 183.826C206.024 198.985 196.114 233.448 196.114 233.448L189.645 233.354C189.645 233.354 195.011 199.718 194.648 184.821C194.248 168.573 189.566 132.171 189.566 132.171L203.817 132.367Z" fill="white"/>
<path d="M189.08 233.579L196.666 233.688L197.262 231.27L188.767 230.864L189.08 233.579Z" fill="#407BFF"/>
<path opacity="0.2" d="M195.294 141.412C199.926 151.075 195.875 168.521 194.096 175.012C193.37 165.218 192.078 153.232 191.061 144.447C191.874 139.496 193.174 136.955 195.294 141.412Z" fill="black"/>
<path d="M148.177 196.48L149.73 201.003L160.773 199.072L159.226 194.549L148.177 196.48Z" fill="#FFB573"/>
<path d="M151.008 201.162L150.703 195.797C150.697 195.7 150.66 195.608 150.597 195.535C150.534 195.462 150.449 195.411 150.355 195.39L146.042 194.468C145.939 194.444 145.83 194.445 145.727 194.472C145.624 194.498 145.529 194.549 145.45 194.621C145.37 194.692 145.31 194.781 145.273 194.881C145.235 194.981 145.223 195.089 145.236 195.194C145.367 197.067 145.534 197.975 145.665 200.334C145.745 201.786 145.824 205.946 145.941 207.95C146.057 209.954 148.053 210.201 148.191 209.402C148.787 205.721 149.759 203.166 150.754 201.982C150.849 201.87 150.92 201.739 150.964 201.598C151.008 201.457 151.023 201.309 151.008 201.162Z" fill="#263238"/>
<g opacity="0.2">
<path d="M160.773 199.072L155.081 200.066L153.527 195.543L159.219 194.549L160.773 199.072Z" fill="black"/>
</g>
<path d="M198.445 132.308C198.445 132.308 192.637 170.249 188.818 184.5C184.876 199.318 156.969 200.204 156.969 200.204L154.21 194.352C154.21 194.352 170.552 190.25 177.718 180.558C180.977 164.586 184.252 132.112 184.252 132.112L198.445 132.308Z" fill="#407BFF"/>
<path opacity="0.2" d="M198.445 132.308C198.445 132.308 192.637 170.249 188.818 184.5C184.876 199.318 156.969 200.204 156.969 200.204L154.21 194.352C154.21 194.352 170.552 190.25 177.718 180.558C180.977 164.586 184.252 132.112 184.252 132.112L198.445 132.308Z" fill="white"/>
<path d="M153.89 193.785L156.279 200.987L158.856 201.052L156.467 192.928L153.89 193.785Z" fill="#407BFF"/>
<path d="M150.282 202.89C150.27 203.313 150.394 203.728 150.637 204.073C150.708 204.154 150.795 204.217 150.893 204.26C150.991 204.303 151.097 204.323 151.204 204.32C151.264 204.321 151.324 204.305 151.377 204.275C151.429 204.244 151.472 204.199 151.501 204.146C151.792 203.587 150.703 201.612 150.579 201.387C150.567 201.366 150.549 201.348 150.527 201.337C150.505 201.325 150.481 201.32 150.456 201.322C150.434 201.323 150.414 201.332 150.398 201.347C150.382 201.361 150.372 201.381 150.369 201.402C150.293 201.894 150.263 202.392 150.282 202.89ZM151.32 203.819C151.341 203.885 151.341 203.957 151.32 204.023C151.31 204.045 151.294 204.063 151.273 204.075C151.252 204.087 151.228 204.091 151.204 204.088C151.134 204.094 151.064 204.083 151 204.057C150.936 204.03 150.878 203.989 150.833 203.936C150.55 203.623 150.463 202.839 150.579 201.758C150.941 202.399 151.194 203.095 151.327 203.819H151.32Z" fill="#407BFF"/>
<path d="M150.376 201.423C150.373 201.44 150.373 201.457 150.376 201.474C150.667 202.062 151.77 203.26 152.307 203.216C152.438 203.216 152.591 203.122 152.605 202.81C152.61 202.693 152.592 202.577 152.553 202.467C152.513 202.358 152.452 202.257 152.373 202.171C151.839 201.711 151.183 201.415 150.485 201.321C150.466 201.317 150.447 201.319 150.429 201.325C150.411 201.331 150.395 201.343 150.383 201.358C150.377 201.367 150.373 201.378 150.372 201.39C150.371 201.401 150.372 201.412 150.376 201.423ZM152.387 202.73V202.795C152.387 202.999 152.293 203.006 152.271 203.006C151.944 203.006 151.088 202.214 150.696 201.612C151.26 201.704 151.787 201.956 152.213 202.338C152.312 202.446 152.373 202.584 152.387 202.73Z" fill="#407BFF"/>
<path d="M194.786 240.707C195.063 241.009 195.434 241.208 195.838 241.273C195.941 241.275 196.042 241.251 196.133 241.205C196.224 241.158 196.303 241.089 196.361 241.005C196.403 240.958 196.431 240.901 196.443 240.84C196.454 240.778 196.449 240.715 196.426 240.656C196.216 240.025 194.154 239.444 193.914 239.386C193.892 239.379 193.868 239.379 193.845 239.387C193.823 239.395 193.804 239.41 193.791 239.429C193.779 239.449 193.772 239.472 193.772 239.495C193.772 239.518 193.779 239.541 193.791 239.56C194.087 239.972 194.42 240.356 194.786 240.707ZM196.085 240.555C196.143 240.599 196.185 240.66 196.209 240.729C196.222 240.749 196.23 240.773 196.23 240.798C196.23 240.823 196.222 240.847 196.209 240.867C196.17 240.922 196.119 240.968 196.06 240.999C196.001 241.031 195.935 241.048 195.867 241.048C195.475 241.048 194.866 240.54 194.205 239.698C194.875 239.876 195.511 240.165 196.085 240.555Z" fill="#407BFF"/>
<path d="M193.842 239.575C193.847 239.578 193.854 239.579 193.86 239.579C193.866 239.579 193.873 239.578 193.878 239.575C194.473 239.778 196.005 239.778 196.303 239.32C196.376 239.212 196.419 239.037 196.209 238.798C196.134 238.713 196.042 238.644 195.94 238.595C195.838 238.546 195.727 238.519 195.613 238.515C194.946 238.611 194.326 238.916 193.842 239.386C193.834 239.403 193.829 239.421 193.829 239.44C193.829 239.459 193.834 239.478 193.842 239.495C193.836 239.507 193.834 239.521 193.834 239.535C193.834 239.548 193.836 239.562 193.842 239.575ZM196.02 238.921C196.039 238.936 196.056 238.953 196.071 238.972C196.209 239.124 196.158 239.197 196.143 239.219C195.962 239.495 194.851 239.575 194.183 239.437C194.585 239.067 195.093 238.833 195.635 238.769C195.757 238.784 195.872 238.837 195.962 238.921H196.02Z" fill="#407BFF"/>
<path d="M184.026 132.744L183.852 134.429C183.808 134.567 183.997 134.683 184.222 134.668L204.151 133.216C204.325 133.216 204.456 133.107 204.449 133.006L204.303 131.343C204.303 131.227 204.122 131.14 203.933 131.154L184.331 132.606C184.272 132.598 184.213 132.607 184.159 132.631C184.105 132.656 184.059 132.695 184.026 132.744Z" fill="#407BFF"/>
<path opacity="0.7" d="M184.026 132.744L183.852 134.429C183.808 134.567 183.997 134.683 184.222 134.668L204.151 133.216C204.325 133.216 204.456 133.107 204.449 133.006L204.303 131.343C204.303 131.227 204.122 131.14 203.933 131.154L184.331 132.606C184.272 132.598 184.213 132.607 184.159 132.631C184.105 132.656 184.059 132.695 184.026 132.744Z" fill="white"/>
<path d="M185.725 134.696L185.203 134.733C185.094 134.733 185.007 134.696 184.999 134.631L184.832 132.453C184.832 132.388 184.905 132.33 185.014 132.322H185.537C185.638 132.322 185.733 132.322 185.733 132.424L185.907 134.602C185.914 134.631 185.856 134.689 185.725 134.696Z" fill="#407BFF"/>
<g opacity="0.2">
<path d="M185.725 134.697L185.203 134.733C185.094 134.733 185.007 134.697 184.999 134.631L184.832 132.453C184.832 132.388 184.905 132.33 185.014 132.323H185.537C185.638 132.323 185.733 132.323 185.733 132.424L185.907 134.602C185.914 134.631 185.856 134.69 185.725 134.697Z" fill="#407BFF"/>
</g>
<path d="M201.371 133.542L200.841 133.586C200.739 133.586 200.652 133.542 200.645 133.484L200.47 131.306C200.47 131.241 200.55 131.183 200.652 131.175L201.182 131.139C201.283 131.139 201.378 131.175 201.378 131.234L201.552 133.412C201.552 133.477 201.472 133.535 201.371 133.542Z" fill="#407BFF"/>
<path opacity="0.2" d="M201.371 133.542L200.841 133.586C200.739 133.586 200.652 133.542 200.645 133.484L200.47 131.306C200.47 131.241 200.55 131.183 200.652 131.175L201.182 131.139C201.283 131.139 201.378 131.175 201.378 131.234L201.552 133.412C201.552 133.477 201.472 133.535 201.371 133.542Z" fill="#407BFF"/>
<path d="M193.544 134.123L193.022 134.16C192.92 134.16 192.826 134.123 192.826 134.058L192.651 131.88C192.651 131.815 192.731 131.756 192.833 131.749L193.356 131.713C193.465 131.713 193.552 131.749 193.559 131.815L193.726 133.993C193.733 134.058 193.653 134.116 193.544 134.123Z" fill="#407BFF"/>
<path opacity="0.2" d="M193.544 134.123L193.022 134.16C192.92 134.16 192.826 134.123 192.826 134.058L192.651 131.88C192.651 131.815 192.731 131.756 192.833 131.749L193.356 131.713C193.465 131.713 193.552 131.749 193.559 131.815L193.726 133.993C193.733 134.058 193.653 134.116 193.544 134.123Z" fill="#407BFF"/>
<g opacity="0.2">
<path d="M185.726 134.698L185.203 134.734C185.094 134.734 185.007 134.698 185 134.632L184.833 132.454C184.833 132.389 184.905 132.331 185.014 132.324H185.537C185.639 132.324 185.733 132.324 185.733 132.425L185.907 134.603C185.915 134.632 185.856 134.69 185.726 134.698Z" fill="white"/>
<g opacity="0.2">
<path d="M185.726 134.699L185.203 134.735C185.094 134.735 185.007 134.699 185 134.633L184.833 132.455C184.833 132.39 184.905 132.332 185.014 132.325H185.537C185.639 132.325 185.733 132.325 185.733 132.426L185.907 134.604C185.915 134.633 185.856 134.691 185.726 134.699Z" fill="white"/>
</g>
<path d="M201.371 133.543L200.841 133.587C200.739 133.587 200.652 133.543 200.645 133.485L200.471 131.307C200.471 131.242 200.551 131.184 200.652 131.176L201.182 131.14C201.284 131.14 201.378 131.176 201.378 131.235L201.552 133.413C201.552 133.478 201.473 133.536 201.371 133.543Z" fill="white"/>
<path opacity="0.2" d="M201.371 133.543L200.841 133.587C200.739 133.587 200.652 133.543 200.645 133.485L200.471 131.307C200.471 131.242 200.551 131.184 200.652 131.176L201.182 131.14C201.284 131.14 201.378 131.176 201.378 131.235L201.552 133.413C201.552 133.478 201.473 133.536 201.371 133.543Z" fill="white"/>
<path d="M193.545 134.125L193.022 134.161C192.92 134.161 192.826 134.125 192.826 134.059L192.652 131.881C192.652 131.816 192.732 131.758 192.833 131.751L193.356 131.714C193.465 131.714 193.552 131.751 193.559 131.816L193.726 133.994C193.734 134.059 193.654 134.117 193.545 134.125Z" fill="white"/>
<path opacity="0.2" d="M193.545 134.125L193.022 134.161C192.92 134.161 192.826 134.125 192.826 134.059L192.652 131.881C192.652 131.816 192.732 131.758 192.833 131.751L193.356 131.714C193.465 131.714 193.552 131.751 193.559 131.816L193.726 133.994C193.734 134.059 193.654 134.117 193.545 134.125Z" fill="white"/>
</g>
<path d="M178.414 81.4084C175.401 83.1581 170.53 88.1384 175.772 93.823C181.013 99.5076 191.649 93.5181 189.82 86.5122C187.99 79.5063 182.72 78.911 178.414 81.4084Z" fill="#263238"/>
<path d="M176.512 90.9255C178.69 95.1436 179.518 96.9804 182.683 98.2436C187.453 100.138 192.158 96.5448 191.286 91.7604C190.51 87.4552 187.083 81.2843 182.081 81.4222C180.978 81.4487 179.9 81.7565 178.949 82.3166C177.998 82.8767 177.206 83.6703 176.649 84.6224C176.091 85.5744 175.786 86.6531 175.762 87.7562C175.738 88.8594 175.996 89.9503 176.512 90.9255Z" fill="#FFB573"/>
<path d="M177.354 86.4041C179.293 87.239 179.714 91.9362 178.08 93.8238C174.705 93.831 171.575 83.9066 177.354 86.4041Z" fill="#263238"/>
<path d="M186.974 88.4434C187.643 89.1095 188.401 89.6811 189.225 90.1422C189.102 90.3511 188.936 90.5303 188.736 90.6671C188.536 90.8039 188.309 90.8949 188.07 90.9335L186.974 88.4434Z" fill="#ED893E"/>
<path d="M177.086 95.4046C177.729 96.0612 178.606 96.437 179.525 96.45C180.738 96.45 181.028 95.2884 180.418 94.272C179.808 93.2556 178.589 92.3264 177.514 92.82C177.275 92.924 177.066 93.0861 176.906 93.2915C176.746 93.4968 176.64 93.739 176.598 93.9959C176.555 94.2528 176.577 94.5163 176.663 94.7623C176.748 95.0084 176.893 95.2292 177.086 95.4046Z" fill="#FFB573"/>
<path d="M181.979 88.9143C182.025 88.9008 182.066 88.8733 182.096 88.8356C182.126 88.7979 182.143 88.7518 182.146 88.7037C182.212 88.3395 182.353 87.9931 182.56 87.6868C182.768 87.3804 183.037 87.1209 183.351 86.925C183.401 86.8923 183.436 86.841 183.449 86.7825C183.461 86.7239 183.449 86.6629 183.417 86.6128C183.384 86.5628 183.333 86.5278 183.274 86.5155C183.215 86.5033 183.154 86.5148 183.104 86.5475C182.723 86.7777 182.396 87.0876 182.145 87.456C181.894 87.8244 181.726 88.2426 181.652 88.6819C181.65 88.7424 181.672 88.8012 181.713 88.8459C181.753 88.8907 181.81 88.9178 181.87 88.9215L181.979 88.9143Z" fill="#263238"/>
<path d="M188.317 84.9003C188.355 84.8883 188.389 84.8676 188.416 84.8398C188.444 84.812 188.465 84.778 188.477 84.7406C188.493 84.6819 188.485 84.6194 188.455 84.5664C188.425 84.5135 188.376 84.4744 188.317 84.4575C187.973 84.3529 187.609 84.332 187.256 84.3964C186.902 84.4608 186.569 84.6087 186.284 84.8277C186.262 84.8473 186.244 84.871 186.23 84.8977C186.217 84.9243 186.209 84.9533 186.207 84.9829C186.205 85.0126 186.209 85.0424 186.219 85.0705C186.228 85.0987 186.243 85.1247 186.263 85.1471C186.282 85.1696 186.306 85.1879 186.333 85.2011C186.359 85.2143 186.388 85.2222 186.418 85.2242C186.447 85.2262 186.477 85.2224 186.505 85.2129C186.534 85.2034 186.56 85.1885 186.582 85.1689C186.809 84.9979 187.074 84.8837 187.354 84.8357C187.635 84.7877 187.923 84.8074 188.194 84.8931C188.234 84.9062 188.276 84.9087 188.317 84.9003Z" fill="#263238"/>
<path d="M188.673 92.0727C188.519 92.7495 188.413 93.436 188.353 94.1273H187.99C186.335 94.2435 185.529 93.7498 185.137 93.169C184.953 92.8805 184.841 92.5518 184.81 92.2107C184.781 92.0182 184.781 91.8224 184.81 91.6299C185.862 92.0114 186.983 92.1648 188.099 92.08C188.455 92.0945 188.673 92.0727 188.673 92.0727Z" fill="#263238"/>
<path d="M188.106 92.1098L187.998 92.7124C186.444 92.814 185.326 92.6761 184.81 92.2405C184.781 92.048 184.781 91.8522 184.81 91.6597C185.865 92.0422 186.988 92.1957 188.106 92.1098Z" fill="white"/>
<path d="M187.99 94.1568C186.335 94.2729 185.529 93.7792 185.137 93.1984C185.768 93.1675 186.399 93.2461 187.003 93.4308C187.4 93.5637 187.745 93.8176 187.99 94.1568Z" fill="#DE5753"/>
<path d="M184.716 88.4428L185.195 88.0435C185.195 88.0435 185.079 88.7186 184.636 88.6969C184.398 88.6404 184.147 88.6774 183.935 88.8003C183.723 88.9231 183.566 89.1225 183.496 89.3575C183.475 88.1814 184.404 88.3484 184.716 88.4428Z" fill="#263238"/>
<path d="M188.477 86.8163L188.956 86.417C188.956 86.417 188.84 87.0922 188.397 87.0704C188.159 87.0157 187.909 87.0535 187.697 87.1761C187.486 87.2988 187.328 87.4971 187.257 87.7311C187.236 86.5695 188.158 86.7219 188.477 86.8163Z" fill="#263238"/>
<path d="M178.843 89.823C178.843 89.823 180.368 86.8174 179.017 84.182C179.792 85.01 180.267 86.073 180.368 87.2022C180.972 86.4288 181.674 85.738 182.458 85.1476C182.288 84.153 181.931 83.1996 181.406 82.338C181.832 82.6465 182.189 83.04 182.455 83.4936C182.721 83.9472 182.89 84.4511 182.952 84.9734C183.015 84.0344 182.787 83.0989 182.299 82.2944C183.096 82.8235 183.688 83.6103 183.976 84.5232L185.595 83.9207C185.595 83.9207 185.232 82.4251 184.477 82.0185C185.2 82.42 185.854 82.9347 186.415 83.5432C186.415 83.5432 187.932 83.4343 188.281 83.8844C187.965 83.1829 187.491 82.5639 186.897 82.0753C186.303 81.5868 185.604 81.2419 184.854 81.0675C186.175 81.1762 187.445 81.6238 188.542 82.367C188.542 82.367 186.502 78.9911 180.941 80.4286C175.38 81.8661 174.24 85.8446 174.175 87.5144C174.109 89.1842 178.843 89.823 178.843 89.823Z" fill="#263238"/>
<path d="M175.772 84.3925C174.518 83.5076 173.055 82.9645 171.528 82.8169C170 82.6692 168.46 82.922 167.06 83.5504C161.891 85.6558 164.57 96.72 170.508 101.243C176.447 105.766 179.671 102.985 179.671 102.985C179.671 102.985 176.462 104.307 173.485 100.728C174.375 101.348 175.389 101.768 176.456 101.96C177.524 102.152 178.62 102.11 179.671 101.838L177.964 101.41L179.671 100.778C178.923 100.902 178.157 100.872 177.421 100.691C176.685 100.51 175.993 100.182 175.387 99.7257C175.387 99.7257 177.384 100.299 178.683 99.7257C178.683 99.7257 172.04 99.4352 170.218 93.3151C168.396 87.1949 174.959 88.1024 174.959 88.1024L175.772 84.3925Z" fill="#263238"/>
<path d="M199.396 70.9245L197.276 67.5776L202.118 68.0278C202.118 68.0278 203.352 70.8374 202.118 72.3838L201.654 72.3257C201.197 72.2736 200.758 72.1209 200.367 71.8786C199.977 71.6363 199.645 71.3105 199.396 70.9245Z" fill="#FFB573"/>
<path d="M197.043 64.0344L201.116 63.7876L202.118 68.0274L197.276 67.5773L197.043 64.0344Z" fill="#FFB573"/>
<path d="M205.277 128.083L183.722 134.102C182.495 129.557 180.972 125.097 179.163 120.751C178.153 118.261 177.181 116.054 176.382 114.217C176.382 114.144 176.324 114.072 176.288 113.999C174.836 110.565 173.964 108.372 174.574 107.842C176.026 106.586 181.152 104.706 181.152 104.706C181.152 104.706 187.468 108.394 191.171 106.833C193.646 105.788 191.897 102.477 191.897 102.477C194.699 100.219 195.919 100.365 197.291 101.955C198.06 102.935 198.695 104.014 199.178 105.164C202.126 111.698 204.478 123.713 205.117 127.161C205.161 127.386 205.197 127.582 205.219 127.728C205.219 127.807 205.219 127.873 205.219 127.924C205.219 127.974 205.277 128.083 205.277 128.083Z" fill="#263238"/>
<path opacity="0.7" d="M205.276 128.082L183.721 134.101C182.494 129.556 180.971 125.096 179.162 120.75C178.153 118.26 177.18 116.053 176.382 114.216C176.375 114.132 176.353 114.051 176.316 113.976L179.322 114.158L180.091 114.201C180.091 114.201 180.433 107.783 181.667 106.099C181.667 106.099 187.751 109.061 191.279 107.551C194.807 106.041 193.167 102.999 193.167 102.999C195.303 103.24 197.351 103.987 199.142 105.177H199.178C202.46 112.27 204.775 125.324 205.182 127.683C205.182 127.763 205.182 127.828 205.182 127.879C205.182 127.93 205.276 128.082 205.276 128.082Z" fill="white"/>
<path opacity="0.2" d="M179.162 120.75C178.153 118.259 177.18 116.052 176.382 114.216C176.382 114.143 176.324 114.07 176.287 113.998C177.148 113.504 178.137 113.279 179.126 113.352C179.126 113.352 179.213 113.657 179.315 114.187C179.762 116.358 179.71 118.602 179.162 120.75Z" fill="black"/>
<path d="M180.048 113.084C176.723 118.347 172.512 123.161 166.791 125.912C166.284 126.157 165.732 126.296 165.169 126.322C164.607 126.347 164.045 126.257 163.518 126.058C162.991 125.859 162.51 125.555 162.104 125.164C161.698 124.773 161.376 124.304 161.157 123.785C160.025 121.425 159.793 119.218 159.459 116.852C159.141 114.034 159.022 111.198 159.103 108.365L162.675 107.965C163.401 110.579 164.127 113.229 164.853 115.763C165.368 117.403 165.869 119.32 166.704 120.627C166.748 120.678 166.762 120.678 166.74 120.627C166.371 120.229 165.883 119.961 165.35 119.863C164.816 119.765 164.265 119.842 163.778 120.082C167.8 117.628 171.14 113.243 173.855 109.287L180.055 113.069L180.048 113.084Z" fill="#FFB573"/>
<path d="M175.002 107.624C173.086 108.306 169.731 113.541 169.731 113.541L175.815 120.547C175.815 120.547 180.331 116.379 180.121 113.737C179.91 111.094 177.18 106.825 175.002 107.624Z" fill="#263238"/>
<path d="M179.082 105.272C179.082 105.272 207.621 114.812 218.344 133.586L217.386 136.396C217.386 136.396 211.68 118.972 177.964 105.976L179.082 105.272Z" fill="#407BFF"/>
<path opacity="0.3" d="M179.082 105.272C179.082 105.272 207.621 114.812 218.344 133.586L217.386 136.396C217.386 136.396 211.68 118.972 177.964 105.976L179.082 105.272Z" fill="black"/>
<path d="M158.021 98.8896L171.22 104.037L170.588 116.197L155.415 110.259L156.555 99.1946L158.021 98.8896Z" fill="#407BFF"/>
<path opacity="0.2" d="M158.021 98.8896L171.22 104.037L170.588 116.197L155.415 110.259L156.555 99.1946L158.021 98.8896Z" fill="black"/>
<path d="M170.617 104.538L169.71 115.072L166.574 115.987L166.225 104.306L170.617 104.538Z" fill="#407BFF"/>
<path opacity="0.7" d="M170.617 104.538L169.71 115.072L166.574 115.987L166.225 104.306L170.617 104.538Z" fill="white"/>
<path d="M171.22 104.037L169.136 105.046L168.112 116.415L154.347 110.876L156.554 99.1946L158.021 98.8896L171.22 104.037Z" fill="#407BFF"/>
<path d="M165.782 118.667C165.448 117.752 165.129 116.764 164.838 115.763C164.112 113.229 163.386 110.579 162.66 107.965L159.088 108.365C159.008 111.198 159.127 114.034 159.444 116.852C159.611 118.319 159.87 119.773 160.221 121.208C160.431 122.089 160.74 122.944 161.143 123.756C161.293 124.052 161.471 124.334 161.673 124.598C161.998 125.04 162.402 125.419 162.864 125.716L163.11 125.861L163.423 126.014L163.749 126.137C163.878 126.18 164.009 126.216 164.141 126.246C164.689 126.366 165.256 126.366 165.804 126.246C166.052 126.19 166.295 126.112 166.53 126.014L166.791 125.89L167.074 125.76C167.343 125.629 167.597 125.491 167.851 125.36C167.844 125.382 166.486 118.1 165.782 118.667Z" fill="#FFB573"/>
<path d="M159.074 108.952L158.595 103.217L163.139 106.019C163.139 106.019 162.98 109.388 161.005 110.324L159.074 108.952Z" fill="#FFB573"/>
<path d="M160.765 99.3765L164.446 101.932L163.139 106.019L158.595 103.224L160.765 99.3765Z" fill="#FFB573"/>
<path d="M121.104 146.827C121.104 146.827 109.423 151.59 103.578 150.726C97.734 149.862 96.115 164.52 103.578 167.772C111.042 171.025 119.71 170.212 122.825 168.179C125.939 166.146 121.104 146.827 121.104 146.827Z" fill="#407BFF"/>
<path opacity="0.2" d="M121.104 146.827C121.104 146.827 109.423 151.59 103.578 150.726C97.734 149.862 96.115 164.52 103.578 167.772C111.042 171.025 119.71 170.212 122.825 168.179C125.939 166.146 121.104 146.827 121.104 146.827Z" fill="black"/>
<path d="M121.104 146.827C121.104 146.827 130.767 155.321 131.348 157.906C131.929 160.49 124.93 168.723 121.583 168.15C118.236 167.576 119.405 147.698 119.405 147.698L121.104 146.827Z" fill="#407BFF"/>
<path opacity="0.2" d="M121.104 146.827C121.104 146.827 130.767 155.321 131.348 157.906C131.929 160.49 124.93 168.723 121.583 168.15C118.236 167.576 119.405 147.698 119.405 147.698L121.104 146.827Z" fill="white"/>
<path d="M97.5745 116.452C102.809 112.524 108.464 108.771 113.626 104.836C115.078 102.963 115.587 100.589 116.211 98.2365C116.937 95.2381 117.496 92.051 117.961 88.9292L121.358 88.9873C121.67 92.3511 121.67 95.7366 121.358 99.1005C120.908 102.694 120.306 106.956 117.525 109.678C112.454 114.088 107.139 118.209 101.604 122.02L97.6108 116.43L97.5745 116.452Z" fill="#DC897C"/>
<path d="M100.914 125.999C105.401 126.18 114.882 114.971 114.882 114.971L108.581 108.792C105.026 110.66 101.727 112.978 98.7652 115.689C94.3802 119.966 95.9266 125.774 100.914 125.999Z" fill="#263238"/>
<path opacity="0.2" d="M100.914 125.999C105.401 126.18 114.882 114.971 114.882 114.971L108.581 108.792C105.026 110.66 101.727 112.978 98.7652 115.689C94.3802 119.966 95.9266 125.774 100.914 125.999Z" fill="white"/>
<path opacity="0.1" d="M101.473 125.977C100.094 124.466 100.188 122.281 102.925 119.276C105.645 116.488 108.789 114.148 112.24 112.342L114.926 114.97C114.926 114.97 106.134 125.41 101.473 125.977Z" fill="black"/>
<path d="M117.844 92.3784L116.683 85.7718L122.541 85.6919C122.541 85.6919 123.993 90.1931 120.981 92.6615L117.844 92.3784Z" fill="#E4897B"/>
<path d="M118.156 81.2549L122.541 82.235V85.7125L116.683 85.7924L118.156 81.2549Z" fill="#E4897B"/>
<path d="M89.3777 255.981L83.272 256.083C83.1726 256.084 83.0766 256.12 83 256.183C82.9234 256.246 82.8708 256.334 82.851 256.432L81.9289 260.918C81.9079 261.014 81.9066 261.114 81.925 261.21C81.9435 261.307 81.9814 261.398 82.0364 261.48C82.0913 261.561 82.1623 261.631 82.2449 261.684C82.3275 261.737 82.4201 261.773 82.517 261.789C82.5724 261.797 82.6285 261.797 82.684 261.789C84.6587 261.724 86.0889 261.586 88.5718 261.543C90.0964 261.543 94.7065 261.608 96.8192 261.543C98.9319 261.477 99.1642 259.423 98.2712 259.248C94.3871 258.464 91.4541 257.339 90.1981 256.25C89.9665 256.064 89.6748 255.968 89.3777 255.981Z" fill="#263238"/>
<path d="M140.844 255.981L134.745 256.083C134.645 256.083 134.547 256.117 134.469 256.181C134.391 256.244 134.337 256.333 134.317 256.432L133.402 260.918C133.381 261.014 133.38 261.113 133.398 261.209C133.416 261.305 133.453 261.396 133.507 261.478C133.561 261.559 133.632 261.629 133.713 261.682C133.795 261.736 133.887 261.772 133.983 261.789C134.039 261.797 134.095 261.797 134.15 261.789C136.125 261.724 137.562 261.586 140.038 261.543C141.563 261.543 146.173 261.608 148.285 261.543C150.398 261.477 150.638 259.423 149.737 259.248C145.853 258.464 142.92 257.339 141.664 256.25C141.433 256.064 141.141 255.968 140.844 255.981Z" fill="#263238"/>
<path d="M81.9143 256.294H90.227C90.227 256.294 100.812 221.402 101.72 212.501C102.627 203.601 102.961 181.283 102.961 181.283V181.327C103.324 181.806 106.46 186.22 110.076 191.353C114.802 198.068 120.349 206.011 121.518 207.957C124.944 213.692 133.337 256.265 133.337 256.265H141.642C141.642 256.265 139.551 218.157 135.283 205.597C131.014 193.037 112.559 165.609 111.76 164.135C110.737 162.255 108.225 156.287 108.225 156.287L83.3155 159.75C83.3155 159.75 82.9089 163.968 82.938 167.656C83.0541 181.494 85.6677 200.196 86.0888 205.227C86.9092 214.817 81.9143 256.294 81.9143 256.294Z" fill="#407BFF"/>
<path d="M102.366 116.111C102.366 116.111 109.822 129.404 108.239 156.317L83.3375 159.78C82.6115 155.983 82.4445 136.998 76.2517 119.494C78.9319 118.593 81.6673 117.865 84.441 117.316C87.9381 116.627 91.4725 116.142 95.026 115.864C97.4754 115.756 99.9294 115.838 102.366 116.111Z" fill="#263238"/>
<path opacity="0.2" d="M108.261 156.316L83.3521 159.779C82.9092 157.405 82.6697 149.071 81.0362 138.87C80.6006 136.148 80.0633 133.288 79.3882 130.384C78.5515 126.698 77.5093 123.062 76.2664 119.494C78.9454 118.589 81.6811 117.861 84.4556 117.316C87.9552 116.626 91.4919 116.141 95.048 115.864C97.4986 115.777 99.9522 115.877 102.388 116.161C102.388 116.161 109.837 129.403 108.261 156.316Z" fill="white"/>
<path d="M82.9819 105.199C84.3831 108.415 86.4014 114.419 84.5428 117.178C88.0639 117.838 90.5904 118.245 93.8574 120.082C94.3729 117.802 94.9827 114.862 94.9827 114.862C91.0405 114.796 90.5178 111.958 90.6267 109.243L82.9819 105.199Z" fill="#E4897B"/>
<path opacity="0.2" d="M86.0889 106.854L90.5901 109.25C90.5675 109.892 90.5966 110.536 90.6772 111.174C89.2252 111.283 86.8947 110.15 86.4083 108.684C86.1885 108.099 86.0802 107.478 86.0889 106.854Z" fill="black"/>
<path opacity="0.5" d="M81.9143 256.294H90.227C90.227 256.294 100.812 221.402 101.72 212.501C102.627 203.601 102.961 181.283 102.961 181.283V181.327C103.324 181.806 106.46 186.22 110.076 191.353C114.802 198.068 120.349 206.011 121.518 207.957C124.944 213.692 133.337 256.265 133.337 256.265H141.642C141.642 256.265 139.551 218.157 135.283 205.597C131.014 193.037 112.559 165.609 111.76 164.135C110.737 162.255 108.225 156.287 108.225 156.287L83.3155 159.75C83.3155 159.75 82.9089 163.968 82.938 167.656C83.0541 181.494 85.6677 200.196 86.0888 205.227C86.9092 214.817 81.9143 256.294 81.9143 256.294Z" fill="white"/>
<path d="M81.3411 117.984L83.4102 115.399L90.1111 116.691L93.5161 120.59L93.9444 116.089L95.2004 114.586L97.9519 115.769V118.586L95.9917 117.947L94.3002 121.882L88.9495 119.682L87.7589 121.2L81.3411 117.984Z" fill="#263238"/>
<path opacity="0.3" d="M81.3411 117.984L83.4102 115.399L90.1111 116.691L93.5161 120.59L93.9444 116.089L95.2004 114.586L97.9519 115.769V118.586L95.9917 117.947L94.3002 121.882L88.9495 119.682L87.7589 121.2L81.3411 117.984Z" fill="white"/>
<path opacity="0.1" d="M94.3 121.882L94.9462 117.178L97.9518 118.586L95.9916 117.947L94.3 121.882Z" fill="black"/>
<path opacity="0.1" d="M94.3 121.882L89.3415 118.23L87.7588 121.2L88.9494 119.682L94.3 121.882Z" fill="black"/>
<path opacity="0.1" d="M81.036 138.841C80.6004 136.119 80.0631 133.259 79.3879 130.355C80.1916 129.358 81.3337 128.691 82.5969 128.481C82.5969 128.481 83.2793 135.103 81.036 138.841Z" fill="black"/>
<path opacity="0.2" d="M102.961 181.299V181.342C103.324 181.821 106.461 186.235 110.076 191.368C110.434 188.59 109.962 185.768 108.719 183.258C107.476 180.748 105.518 178.662 103.092 177.262L102.961 181.299Z" fill="black"/>
<path d="M90.3582 91.6876C92.8556 92.3265 95.2877 98.5991 92.5943 100.523C89.9008 102.447 85.6682 90.4897 90.3582 91.6876Z" fill="#263238"/>
<path d="M81.0651 100.589C82.8656 104.944 83.6933 107.616 86.7497 109.221C87.7381 109.751 88.8528 110.002 89.9732 109.945C91.0936 109.888 92.1772 109.526 93.1069 108.899C94.0367 108.271 94.7772 107.401 95.2485 106.383C95.7198 105.365 95.904 104.237 95.7811 103.122C95.3818 98.8171 92.5142 92.3774 87.4902 91.9418C86.4059 91.8168 85.3078 91.9792 84.3062 92.4128C83.3045 92.8463 82.4345 93.5357 81.7835 94.4118C81.1325 95.2879 80.7234 96.3198 80.5973 97.404C80.4712 98.4881 80.6326 99.5864 81.0651 100.589Z" fill="#E4897B"/>
<path d="M84.3902 94.2436L83.3883 90.3159C82.4723 90.9731 81.372 91.3238 80.2447 91.3178C75.3369 91.0927 72.3022 94.7808 74.9812 97.0024C72.9411 98.3818 74.7343 101.191 76.5856 102.854C79.1484 105.163 81.5805 106.019 82.8728 104.516C84.0998 103.602 83.4464 98.8682 82.6695 97.2056C81.5079 94.7155 84.3902 94.2436 84.3902 94.2436Z" fill="#263238"/>
<path d="M80.862 105.525C81.7549 106.286 82.8835 106.715 84.0564 106.738C85.5084 106.738 85.6245 105.337 84.6662 104.182C83.8023 103.144 81.9945 101.895 80.7748 102.462C79.5552 103.028 79.7294 104.574 80.862 105.525Z" fill="#E4897B"/>
<path d="M88.3321 99.7685C88.4555 100.132 88.7531 100.371 88.9927 100.299C89.2323 100.226 89.3267 99.8702 89.2033 99.5072C89.0798 99.1442 88.7822 98.9119 88.5426 98.9845C88.303 99.0571 88.2086 99.4055 88.3321 99.7685Z" fill="#263238"/>
<path d="M92.4849 98.5195C92.6083 98.8825 92.906 99.1148 93.1456 99.0422C93.3851 98.9696 93.4795 98.6138 93.3561 98.2508C93.2327 97.8878 92.935 97.6555 92.6954 97.7281C92.4559 97.8007 92.3615 98.1855 92.4849 98.5195Z" fill="#263238"/>
<path d="M91.229 99.0933C92.0463 100.074 92.9913 100.941 94.0386 101.671C93.8448 101.925 93.5973 102.134 93.3138 102.282C93.0302 102.43 92.7175 102.514 92.3979 102.527L91.229 99.0933Z" fill="#DE5753"/>
<path d="M86.5976 98.8314C86.5621 98.8421 86.5242 98.8421 86.4887 98.8314C86.4604 98.8217 86.4343 98.8064 86.412 98.7864C86.3896 98.7665 86.3715 98.7423 86.3587 98.7152C86.3458 98.6882 86.3385 98.6588 86.3371 98.6289C86.3358 98.599 86.3404 98.5692 86.3507 98.541C86.4598 98.205 86.6489 97.9005 86.9019 97.6539C87.1549 97.4073 87.464 97.2259 87.8027 97.1253C87.8318 97.119 87.8619 97.1184 87.8912 97.1237C87.9205 97.1291 87.9484 97.1402 87.9734 97.1564C87.9984 97.1726 88.0199 97.1936 88.0367 97.2182C88.0536 97.2427 88.0653 97.2704 88.0713 97.2996C88.0826 97.3572 88.0716 97.4169 88.0406 97.4667C88.0097 97.5165 87.961 97.5528 87.9044 97.5682C87.6374 97.6493 87.3941 97.7941 87.1955 97.9901C86.997 98.1862 86.849 98.4276 86.7645 98.6935C86.7506 98.7287 86.7279 98.7598 86.6987 98.7839C86.6695 98.808 86.6348 98.8244 86.5976 98.8314Z" fill="#263238"/>
<path d="M93.7916 96.5665C93.755 96.571 93.7179 96.5675 93.6828 96.5562C93.6476 96.5449 93.6154 96.5261 93.5883 96.5011C93.3921 96.2894 93.1502 96.125 92.881 96.0206C92.6118 95.9162 92.3224 95.8745 92.0347 95.8985C91.9759 95.9091 91.9154 95.8959 91.8664 95.8619C91.8174 95.8279 91.7839 95.7758 91.7733 95.717C91.7648 95.6575 91.7798 95.597 91.815 95.5483C91.8502 95.4995 91.9029 95.4664 91.9621 95.4557C92.3206 95.4163 92.6833 95.4615 93.0211 95.5876C93.359 95.7136 93.6627 95.9171 93.9078 96.1817C93.9288 96.2026 93.9455 96.2275 93.957 96.2549C93.9684 96.2823 93.9742 96.3117 93.9742 96.3414C93.9742 96.3711 93.9684 96.4005 93.957 96.4279C93.9455 96.4553 93.9288 96.4802 93.9078 96.5011C93.8771 96.5349 93.8364 96.5578 93.7916 96.5665Z" fill="#263238"/>
<path d="M80.0559 91.8766C80.0559 91.8766 82.5751 85.0595 88.9204 85.5894C88.3336 85.7946 87.7915 86.11 87.3232 86.5187C87.3232 86.5187 92.6593 85.3716 94.8155 88.9508L93.7047 88.4789C93.7047 88.4789 95.4689 91.441 94.1185 93.7134L93.6902 92.7115C93.6902 92.7115 91.8244 95.7244 88.4267 95.3614L89.4939 94.6354C89.4939 94.6354 83.7948 95.1726 82.2339 93.9094C81.4338 93.3158 80.7032 92.6339 80.0559 91.8766Z" fill="#263238"/>
<path d="M93.487 103.682C91.5518 103.536 89.6073 103.572 87.679 103.79C88.2815 105.039 89.2979 106.012 91.4832 105.816C91.7583 105.819 92.031 105.764 92.2841 105.656C92.5371 105.548 92.765 105.389 92.9533 105.188C93.1417 104.988 93.2863 104.75 93.3782 104.491C93.47 104.232 93.5071 103.956 93.487 103.682Z" fill="#263238"/>
<path d="M90.3798 104.886C91.2162 104.77 92.0679 104.923 92.8119 105.322C92.4279 105.62 91.9615 105.792 91.4761 105.816C90.642 105.935 89.7916 105.783 89.0513 105.38C89.4326 105.083 89.8967 104.91 90.3798 104.886Z" fill="#A02724"/>
<path d="M93.291 103.66C93.268 103.827 93.1977 103.985 93.0884 104.113C92.9791 104.242 92.8353 104.337 92.6739 104.386C91.4079 104.489 90.1357 104.489 88.8697 104.386C88.6672 104.385 88.4682 104.333 88.2908 104.235C88.1133 104.138 87.963 103.997 87.8533 103.827C89.6592 103.636 91.4768 103.58 93.291 103.66Z" fill="white"/>
<path d="M88.666 139.568L82.691 132.657L78.4802 146.712C78.4802 146.712 80.7889 151.867 80.876 151.613C80.9631 151.358 88.666 139.568 88.666 139.568Z" fill="#407BFF"/>
<path d="M87.8821 139.705L82.6912 133.905L79.7364 133.215L78.887 145.317L82.3064 147.699L87.8821 139.705Z" fill="#407BFF"/>
<path opacity="0.7" d="M87.8821 139.705L82.6912 133.905L79.7364 133.215L78.887 145.317L82.3064 147.699L87.8821 139.705Z" fill="white"/>
<path d="M79.6424 131.888L84.9785 138.719L88.6666 139.532L83.0473 158.191L77.7185 158.757L74.3499 151.003L79.6424 131.888Z" fill="#407BFF"/>
<path opacity="0.2" d="M79.6424 131.888L84.9785 138.719L88.6666 139.532L83.0473 158.191L77.7185 158.757L74.3499 151.003L79.6424 131.888Z" fill="white"/>
<path d="M84.775 139.836L78.241 133.418L75.1482 147.764C75.1482 147.764 77.8634 152.716 77.9288 152.454C77.9941 152.193 84.775 139.836 84.775 139.836Z" fill="#407BFF"/>
<path opacity="0.4" d="M84.775 139.836L78.241 133.418L75.1482 147.764C75.1482 147.764 77.8634 152.716 77.9288 152.454C77.9941 152.193 84.775 139.836 84.775 139.836Z" fill="black"/>
<path d="M84.0128 140.075L78.379 134.696L75.3806 134.246L75.4823 146.377L79.0832 148.482L84.0128 140.075Z" fill="#407BFF"/>
<path opacity="0.7" d="M84.0128 140.075L78.379 134.696L75.3806 134.246L75.4823 146.377L79.0832 148.482L84.0128 140.075Z" fill="white"/>
<path d="M75.1846 132.925L81.0434 139.321L84.7751 139.836L80.6514 158.887L75.3806 159.859L71.4094 152.403L75.1846 132.925Z" fill="#407BFF"/>
<path opacity="0.2" d="M75.1846 132.925L81.0434 139.321L84.7751 139.836L80.6514 158.887L75.3806 159.859L71.4094 152.403L75.1846 132.925Z" fill="black"/>
<path d="M79.7948 125.774C75.6856 130.079 71.1264 134.355 67.7722 139.263C67.6343 139.488 67.4891 139.757 67.431 139.866C67.4556 139.729 67.4556 139.589 67.431 139.452C67.431 139.314 67.3294 139.292 67.3512 139.357C67.6198 140.025 68.8032 140.86 69.5292 141.361C71.9352 142.839 74.4523 144.128 77.0578 145.216L76.2301 148.476C73.0498 148.107 69.9394 147.281 66.9954 146.022C62.9879 144.338 59.6628 140.751 62.2837 136.214C64.0824 133.068 66.2252 130.131 68.6725 127.458C70.7125 125.142 72.7889 122.957 75.0322 120.815L79.8166 125.738L79.7948 125.774Z" fill="#DC897C"/>
<path d="M79.7291 119.008C72.6215 117.556 64.0039 131.001 64.0039 131.001L71.1477 136.664C74.8127 134.347 78.2889 131.745 81.5441 128.881C86.038 124.729 84.4553 119.966 79.7291 119.008Z" fill="#263238"/>
<path opacity="0.2" d="M79.7291 119.008C72.6215 117.556 64.0039 131.001 64.0039 131.001L71.1477 136.664C74.8127 134.347 78.2889 131.745 81.5441 128.881C86.038 124.729 84.4553 119.966 79.7291 119.008Z" fill="white"/>
<path d="M75.2353 144.519L81.9072 143.793L81.5805 149.652C81.5805 149.652 76.9922 150.799 74.7344 147.604L75.2353 144.519Z" fill="#E4897B"/>
<path d="M86.3359 145.608L85.0436 149.913L81.5806 149.673L81.9073 143.814L86.3359 145.608Z" fill="#E4897B"/>
<path d="M97.0732 115.305C97.0732 115.305 111.797 129.186 119.579 148.142L121.075 146.828C121.075 146.828 111.804 127.081 99.6215 115L97.0732 115.305Z" fill="#407BFF"/>
</svg>
