<svg width="24" height="24" viewBox="0 0 24 24" fill="none" xmlns="http://www.w3.org/2000/svg">
<path d="M14.613 5.95264V10.0604L16.05 10.9641C16.1019 10.9753 16.1556 10.9753 16.2075 10.9641L22.386 6.79864C22.3815 6.59647 22.3076 6.40202 22.1766 6.24796C22.0456 6.0939 21.8656 5.98962 21.6668 5.95264H14.613Z" fill="#0072C6"/>
<path d="M14.6129 11.593L15.9232 12.493C15.9845 12.5305 16.0549 12.5504 16.1268 12.5504C16.1987 12.5504 16.2691 12.5305 16.3304 12.493C16.1054 12.6287 22.3852 8.45947 22.3852 8.45947V16.009C22.4015 16.162 22.3843 16.3167 22.3346 16.4623C22.285 16.6079 22.2041 16.7409 22.0976 16.852C21.9912 16.9631 21.8618 17.0496 21.7184 17.1054C21.575 17.1612 21.4212 17.1851 21.2677 17.1752H14.6122L14.6129 11.593ZM7.82992 9.69922C7.61223 9.69826 7.39833 9.75615 7.21085 9.86679C7.02338 9.97743 6.8693 10.1367 6.76492 10.3277C6.47996 10.8342 6.34326 11.4107 6.37042 11.9912C6.34081 12.5705 6.4777 13.1462 6.76492 13.6502C6.8688 13.8334 7.01907 13.9861 7.20064 14.0928C7.3822 14.1996 7.58867 14.2567 7.79928 14.2583C8.00989 14.26 8.21723 14.2062 8.40047 14.1024C8.58371 13.9985 8.73639 13.8483 8.84317 13.6667C9.12781 13.1653 9.26191 12.5924 9.22942 12.0167C9.26191 11.423 9.13228 10.8316 8.85442 10.306C8.75485 10.1213 8.60687 9.9673 8.42638 9.86041C8.24588 9.75351 8.03968 9.69779 7.82992 9.69922Z" fill="#0072C6"/>
<path d="M1.61475 3.86625V19.9365L13.8397 22.5V1.5L1.61475 3.86625ZM9.79575 14.6182C9.5671 14.9407 9.26303 15.2023 8.91006 15.3802C8.55709 15.5581 8.16594 15.647 7.77075 15.639C7.38551 15.6458 7.00431 15.5595 6.65958 15.3874C6.31486 15.2153 6.01679 14.9625 5.79075 14.6505C5.25469 13.902 4.98651 12.9947 5.0295 12.075C4.984 11.1102 5.25703 10.1573 5.8065 9.363C6.03821 9.03459 6.34709 8.76817 6.70595 8.58716C7.06482 8.40616 7.46267 8.31613 7.8645 8.325C8.2469 8.31759 8.6253 8.40402 8.96655 8.57675C9.30781 8.74947 9.60153 9.0032 9.822 9.31575C10.3527 10.0805 10.6163 10.999 10.572 11.9288C10.6189 12.8866 10.3458 13.8328 9.79575 14.6182Z" fill="#0072C6"/>
</svg>
